<?xml version="1.0" encoding="UTF-8" standalone="no"?>
<!-- Generator: Adobe Illustrator 25.4.1, SVG Export Plug-In . SVG Version: 6.00 Build 0)  -->

<svg
   version="1.1"
   x="0px"
   y="0px"
   viewBox="0 0 772.6 694.6"
   style="enable-background:new 0 0 772.6 694.6;"
   xml:space="preserve"
   id="svg956"
   sodipodi:docname="NFPA-704-diamond-standard.svg"
   inkscape:version="1.1 (c68e22c387, 2021-05-23)"
   xmlns:inkscape="http://www.inkscape.org/namespaces/inkscape"
   xmlns:sodipodi="http://sodipodi.sourceforge.net/DTD/sodipodi-0.dtd"
   xmlns:xlink="http://www.w3.org/1999/xlink"
   xmlns="http://www.w3.org/2000/svg"
   xmlns:svg="http://www.w3.org/2000/svg"><defs
   id="defs960" /><sodipodi:namedview
   id="namedview958"
   pagecolor="#ffffff"
   bordercolor="#666666"
   borderopacity="1.0"
   inkscape:pageshadow="2"
   inkscape:pageopacity="0.0"
   inkscape:pagecheckerboard="0"
   showgrid="false"
   inkscape:zoom="0.529363"
   inkscape:cx="112.39924"
   inkscape:cy="342.86492"
   inkscape:window-width="1366"
   inkscape:window-height="705"
   inkscape:window-x="-8"
   inkscape:window-y="-8"
   inkscape:window-maximized="1"
   inkscape:current-layer="g515" />
<style
   type="text/css"
   id="style2">
	.st0{display:none;}
	.st1{display:inline;}
	.st2{fill:#241F21;}
	.st3{fill:none;stroke:#231F20;stroke-width:3.6538;stroke-miterlimit:10;}
	.st4{fill:#ED1C24;}
	
		.st5{clip-path:url(#SVGID_00000170247174363295187520000016980290161913529240_);fill:none;stroke:#231F20;stroke-width:7.5656;stroke-miterlimit:10;}
	.st6{fill:#FFDD00;}
	
		.st7{clip-path:url(#SVGID_00000045619314127235877290000002560141369670185113_);fill:none;stroke:#231F20;stroke-width:7.5656;stroke-miterlimit:10;}
	.st8{fill:#0089CF;}
	.st9{fill:none;stroke:#231F20;stroke-width:7.5656;stroke-miterlimit:10;}
	.st10{fill:#FFFFFF;}
	
		.st11{clip-path:url(#SVGID_00000065767195645489742430000010871530054976904847_);fill:none;stroke:#231F20;stroke-width:7.5656;stroke-miterlimit:10;}
	.st12{font-family:'MyriadPro-Bold';}
	.st13{font-size:25px;}
	.st14{font-family:'MyriadPro-Regular';}
	.st15{fill:none;}
	
		.st16{clip-path:url(#SVGID_00000144321995921198550780000016671918189916853125_);fill:none;stroke:#231F20;stroke-width:7.5656;stroke-miterlimit:10;}
	
		.st17{clip-path:url(#SVGID_00000053530976780686939180000008029235987102033547_);fill:none;stroke:#231F20;stroke-width:7.5656;stroke-miterlimit:10;}
	
		.st18{clip-path:url(#SVGID_00000116948732594307842190000014279836055555365006_);fill:none;stroke:#231F20;stroke-width:7.5656;stroke-miterlimit:10;}
	.st19{fill:#231F20;}
	.st20{clip-path:url(#SVGID_00000112605806817860832020000000571668506860981408_);}
	.st21{clip-path:url(#SVGID_00000002346071447874333500000008148289794961874597_);}
	.st22{clip-path:url(#SVGID_00000054265289737836726240000004829324116929737141_);}
	.st23{clip-path:url(#SVGID_00000049180349266403817760000001849520800435571607_);}
	.st24{clip-path:url(#SVGID_00000004524468699485593460000014739376145294974366_);}
	.st25{clip-path:url(#SVGID_00000038411508469441757700000016973011285302666899_);}
</style>
<g
   id="Layer_1"
   class="st0">
	<g
   class="st1"
   id="g208">
		<g
   id="g28">
			<text
   transform="matrix(1 0 0 1 514.2457 42.5445)"
   class="st12 st13"
   id="text4">FIRE HAZARD</text>
			<text
   transform="matrix(1 0 0 1 514.2457 78.7857)"
   id="text26"><tspan
     x="0"
     y="0"
     class="st12 st13"
     id="tspan6">4 </tspan><tspan
     x="18.9"
     y="0"
     class="st14 st13"
     id="tspan8">BELOW 25 째C</tspan><tspan
     x="0"
     y="30"
     class="st12 st13"
     id="tspan10">3 </tspan><tspan
     x="18.9"
     y="30"
     class="st14 st13"
     id="tspan12">BELOW 37 째C</tspan><tspan
     x="0"
     y="60"
     class="st12 st13"
     id="tspan14">2 </tspan><tspan
     x="18.9"
     y="60"
     class="st14 st13"
     id="tspan16">BELOW 93 째C</tspan><tspan
     x="0"
     y="90"
     class="st12 st13"
     id="tspan18">1 </tspan><tspan
     x="18.9"
     y="90"
     class="st14 st13"
     id="tspan20">ABOVE 93 째C</tspan><tspan
     x="0"
     y="120"
     class="st12 st13"
     id="tspan22">0 </tspan><tspan
     x="18.9"
     y="120"
     class="st14 st13"
     id="tspan24">NOT FLAMMABLE</tspan></text>
		</g>
		<g
   id="g58">
			<text
   transform="matrix(1 0 0 1 514.245 478.5096)"
   class="st12 st13"
   id="text30">REACTIVITY</text>
			<text
   transform="matrix(1 0 0 1 514.245 514.7518)"
   id="text56"><tspan
     x="0"
     y="0"
     class="st12 st13"
     id="tspan32">4 </tspan><tspan
     x="18.9"
     y="0"
     class="st14 st13"
     id="tspan34">MAY DETONATE</tspan><tspan
     x="0"
     y="30"
     class="st12 st13"
     id="tspan36">3 </tspan><tspan
     x="18.9"
     y="30"
     class="st14 st13"
     id="tspan38">SHOCK + HEAT</tspan><tspan
     x="0"
     y="60"
     class="st15 st12 st13"
     id="tspan40">3 </tspan><tspan
     x="18.9"
     y="60"
     class="st14 st13"
     id="tspan42">MAY DETONATE</tspan><tspan
     x="0"
     y="90"
     class="st12 st13"
     id="tspan44">2 </tspan><tspan
     x="18.9"
     y="90"
     class="st14 st13"
     id="tspan46">VIOLENT REACTION</tspan><tspan
     x="0"
     y="120"
     class="st12 st13"
     id="tspan48">1 </tspan><tspan
     x="18.9"
     y="120"
     class="st14 st13"
     id="tspan50">UNSTABLEIF HEATED</tspan><tspan
     x="0"
     y="150"
     class="st12 st13"
     id="tspan52">0 </tspan><tspan
     x="18.9"
     y="150"
     class="st14 st13"
     id="tspan54">STABLE</tspan></text>
		</g>
		<g
   id="g84">
			<text
   transform="matrix(1 0 0 1 24.2124 42.5446)"
   class="st12 st13"
   id="text60">HEALTH HAZARD</text>
			<text
   transform="matrix(1 0 0 1 24.2124 78.7863)"
   id="text82"><tspan
     x="0"
     y="0"
     class="st12 st13"
     id="tspan62">4</tspan><tspan
     x="13.9"
     y="0"
     class="st14 st13"
     id="tspan64"> DEADLY</tspan><tspan
     x="0"
     y="30"
     class="st12 st13"
     id="tspan66">3 </tspan><tspan
     x="18.9"
     y="30"
     class="st14 st13"
     id="tspan68">EXTREME DANGER</tspan><tspan
     x="0"
     y="60"
     class="st12 st13"
     id="tspan70">2 </tspan><tspan
     x="18.9"
     y="60"
     class="st14 st13"
     id="tspan72">HAZARDOUS</tspan><tspan
     x="0"
     y="90"
     class="st12 st13"
     id="tspan74">1</tspan><tspan
     x="13.9"
     y="90"
     class="st14 st13"
     id="tspan76"> SLIGHTLY HAZARDOUS</tspan><tspan
     x="0"
     y="120"
     class="st12 st13"
     id="tspan78">0 </tspan><tspan
     x="18.9"
     y="120"
     class="st14 st13"
     id="tspan80">NORMAL MATERIAL</tspan></text>
		</g>
		<g
   id="g136">
			<text
   transform="matrix(1 0 0 1 24.2129 478.5094)"
   class="st12 st13"
   id="text86">SPECIFIC HAZARD</text>
			<g
   id="g134">
				<text
   transform="matrix(1 0 0 1 94.9123 514.1268)"
   id="text100"><tspan
     x="0"
     y="0"
     class="st14 st13"
     id="tspan88">OXIDIZER</tspan><tspan
     x="0"
     y="30"
     class="st14 st13"
     id="tspan90">ACID</tspan><tspan
     x="0"
     y="60"
     class="st14 st13"
     id="tspan92">ALKALI</tspan><tspan
     x="0"
     y="90"
     class="st14 st13"
     id="tspan94">CORROSIVE</tspan><tspan
     x="0"
     y="120"
     class="st14 st13"
     id="tspan96">RADIOACTIVE</tspan><tspan
     x="0"
     y="150"
     class="st14 st13"
     id="tspan98">USE NO WATER</tspan></text>
				<g
   id="g132">
					<g
   id="g110">
						<path
   class="st2"
   d="M58.8,626.7c0.4,0.6,0.5,1.3,0.5,2h10c0-2.4-0.6-4.8-1.9-7c-1.3-2.2-3.1-3.9-5.1-5.1l-5,8.6        C58,625.6,58.5,626.1,58.8,626.7"
   id="path102" />
						<path
   class="st2"
   d="M53.3,625.3C53.4,625.3,53.4,625.3,53.3,625.3l-5-8.7c0,0,0,0,0,0c-2.1,1.2-3.8,3-5,4.9l-0.2,0.4        c-1.2,2.1-1.8,4.4-1.8,6.8l10,0C51.3,627.3,52.1,626,53.3,625.3"
   id="path104" />
						<path
   class="st2"
   d="M62.4,640.9l-5-8.6c0,0,0,0,0,0c-1.3,0.7-2.8,0.7-4,0l-5,8.6c2.1,1.2,4.4,1.8,6.8,1.9h0.4        C57.9,642.7,60.2,642.1,62.4,640.9C62.4,640.9,62.4,640.9,62.4,640.9"
   id="path106" />
						<path
   class="st2"
   d="M56.8,631.2c-1.3,0.8-3.1,0.3-3.8-1c-0.8-1.3-0.3-3.1,1-3.8c1.3-0.8,3.1-0.3,3.8,1        C58.6,628.7,58.1,630.4,56.8,631.2"
   id="path108" />
					</g>
					<line
   class="st3"
   x1="70.2"
   y1="657.6"
   x2="42.3"
   y2="657.6"
   id="line112" />
					<g
   id="g130">
						<text
   transform="matrix(1 0 0 1 30.9006 516.6879)"
   id="text128"><tspan
     x="0"
     y="0"
     class="st12 st13"
     id="tspan114">OXY</tspan><tspan
     x="-3.7"
     y="30"
     class="st12 st13"
     id="tspan116">ACID</tspan><tspan
     x="1.9"
     y="60"
     class="st12 st13"
     id="tspan118">ALK</tspan><tspan
     x="-7.1"
     y="90"
     class="st12 st13"
     id="tspan120">CORR</tspan><tspan
     x="13.6"
     y="120"
     class="st14 st13"
     id="tspan122">    </tspan><tspan
     x="7.9"
     y="150"
     class="st14 st13"
     id="tspan124"> </tspan><tspan
     x="13.2"
     y="150"
     class="st12 st13"
     id="tspan126">W </tspan></text>
					</g>
				</g>
			</g>
		</g>
		<g
   id="g206">
			<g
   id="g178">
				
					<rect
   x="293.9"
   y="137.9"
   transform="matrix(0.7071 -0.7071 0.7071 0.7071 -44.4509 327.8187)"
   class="st4"
   width="159.2"
   height="159.2"
   id="rect138" />
				<g
   id="g148">
					<defs
   id="defs141">
						<rect
   id="SVGID_00000155858253522127631460000003261161400994981533_"
   x="132.4"
   y="91.6"
   width="480"
   height="476.5" />
					</defs>
					<clipPath
   id="SVGID_00000168819246478825960910000000577139420620508595_">
						<use
   xlink:href="#SVGID_00000155858253522127631460000003261161400994981533_"
   style="overflow:visible;"
   id="use143" />
					</clipPath>
					
						<rect
   x="293.9"
   y="137.9"
   transform="matrix(0.7071 -0.7071 0.7071 0.7071 -44.4509 327.8187)"
   style="clip-path:url(#SVGID_00000168819246478825960910000000577139420620508595_);fill:none;stroke:#231F20;stroke-width:7.5656;stroke-miterlimit:10;"
   width="159.2"
   height="159.2"
   clip-path="url(#SVGID_00000168819246478825960910000000577139420620508595_)"
   id="rect146" />
				</g>
				
					<rect
   x="406.5"
   y="250.5"
   transform="matrix(0.7071 -0.7071 0.7071 0.7071 -91.094 440.424)"
   class="st6"
   width="159.2"
   height="159.2"
   id="rect150" />
				<g
   id="g160">
					<defs
   id="defs153">
						<rect
   id="SVGID_00000070820809300226690930000017198254741513389721_"
   x="132.4"
   y="91.6"
   width="480"
   height="476.5" />
					</defs>
					<clipPath
   id="SVGID_00000137126846917050505400000017495588328972286137_">
						<use
   xlink:href="#SVGID_00000070820809300226690930000017198254741513389721_"
   style="overflow:visible;"
   id="use155" />
					</clipPath>
					
						<rect
   x="406.5"
   y="250.5"
   transform="matrix(0.7071 -0.7071 0.7071 0.7071 -91.094 440.424)"
   style="clip-path:url(#SVGID_00000137126846917050505400000017495588328972286137_);fill:none;stroke:#231F20;stroke-width:7.5656;stroke-miterlimit:10;"
   width="159.2"
   height="159.2"
   clip-path="url(#SVGID_00000137126846917050505400000017495588328972286137_)"
   id="rect158" />
				</g>
				
					<rect
   x="180.7"
   y="251.3"
   transform="matrix(0.7071 -0.7071 0.7071 0.7071 -157.7308 280.9993)"
   class="st8"
   width="159.2"
   height="159.2"
   id="rect162" />
				
					<rect
   x="180.7"
   y="251.3"
   transform="matrix(0.7071 -0.7071 0.7071 0.7071 -157.7308 280.9993)"
   class="st9"
   width="159.2"
   height="159.2"
   id="rect164" />
				
					<rect
   x="293"
   y="363.5"
   transform="matrix(0.7071 -0.7071 0.7071 0.7071 -204.2279 393.2532)"
   class="st10"
   width="159.2"
   height="159.2"
   id="rect166" />
				<g
   id="g176">
					<defs
   id="defs169">
						<rect
   id="SVGID_00000160877778339183251840000011828476253178270385_"
   x="132.4"
   y="91.6"
   width="480"
   height="476.5" />
					</defs>
					<clipPath
   id="SVGID_00000008129022165642859800000013021615896707021999_">
						<use
   xlink:href="#SVGID_00000160877778339183251840000011828476253178270385_"
   style="overflow:visible;"
   id="use171" />
					</clipPath>
					
						<rect
   x="293"
   y="363.5"
   transform="matrix(0.7071 -0.7071 0.7071 0.7071 -204.2279 393.2532)"
   style="clip-path:url(#SVGID_00000008129022165642859800000013021615896707021999_);fill:none;stroke:#231F20;stroke-width:7.5656;stroke-miterlimit:10;"
   width="159.2"
   height="159.2"
   clip-path="url(#SVGID_00000008129022165642859800000013021615896707021999_)"
   id="rect174" />
				</g>
			</g>
			<g
   id="g204">
				<g
   id="g184">
					<g
   id="g182">
						<path
   d="M196.2,255.9c0.4,5.1-1.2,6.2-4.4,5.5c-6.7-1.5-13.3-2.9-20-4.3c-1.7-0.4-3.4-0.9-3.8-2.8c-0.4-2,1.1-3,2.6-3.8        c3.7-2,2.4-3.8,0.1-6c-6.1-5.9-12-12-18-17.9c-3.3-3.2-2.3-5.6,0.6-8.4c2.6-2.5,4.6-4.5,8.1-0.7c5.7,6.3,12,12,17.9,18.1        c2.5,2.5,4.5,4.3,6.4-0.4c0.6-1.4,1.7-2.5,3.5-2.2c1.6,0.2,2.2,1.5,2.5,2.8C193.4,242.9,195,250.2,196.2,255.9z"
   id="path180" />
					</g>
				</g>
				<g
   id="g190">
					<g
   id="g188">
						<path
   d="M312.6,509.6c0.4-5.1-1.2-6.2-4.4-5.5c-6.7,1.5-13.3,2.9-20,4.3c-1.7,0.4-3.4,0.9-3.8,2.8c-0.4,2,1.1,3,2.6,3.8        c3.7,2,2.4,3.8,0.1,6c-6.1,5.9-12,12-18,17.9c-3.3,3.2-2.3,5.6,0.6,8.4c2.6,2.5,4.6,4.5,8.1,0.7c5.7-6.3,12-12,17.9-18.1        c2.5-2.5,4.5-4.3,6.4,0.4c0.6,1.4,1.7,2.5,3.5,2.2c1.6-0.2,2.2-1.5,2.5-2.8C309.8,522.5,311.4,515.2,312.6,509.6z"
   id="path186" />
					</g>
				</g>
				<g
   id="g196">
					<g
   id="g194">
						<path
   d="M436.1,150.1c-0.4,5.1,1.2,6.2,4.4,5.5c6.7-1.5,13.3-2.9,20-4.3c1.7-0.4,3.4-0.9,3.8-2.8c0.4-2-1.1-3-2.6-3.8        c-3.7-2-2.4-3.8-0.1-6c6.1-5.9,12-12,18-17.9c3.3-3.2,2.3-5.6-0.6-8.4c-2.6-2.5-4.6-4.5-8.1-0.7c-5.7,6.3-12,12-17.9,18.1        c-2.5,2.5-4.5,4.3-6.4-0.4c-0.6-1.4-1.7-2.5-3.5-2.2c-1.6,0.2-2.2,1.5-2.5,2.8C438.9,137.1,437.3,144.4,436.1,150.1z"
   id="path192" />
					</g>
				</g>
				<g
   id="g202">
					<g
   id="g200">
						<path
   d="M548.7,394.4c-0.4-5.1,1.2-6.2,4.4-5.5c6.7,1.5,13.3,2.9,20,4.3c1.7,0.4,3.4,0.9,3.8,2.8c0.4,2-1.1,3-2.6,3.8        c-3.7,2-2.4,3.8-0.1,6c6.1,5.9,12,12,18,17.9c3.3,3.2,2.3,5.6-0.6,8.4c-2.6,2.5-4.6,4.5-8.1,0.7c-5.7-6.3-12-12-17.9-18.1        c-2.5-2.5-4.5-4.3-6.4,0.4c-0.6,1.4-1.7,2.5-3.5,2.2c-1.6-0.2-2.2-1.5-2.5-2.8C551.5,407.4,549.9,400.1,548.7,394.4z"
   id="path198" />
					</g>
				</g>
			</g>
		</g>
	</g>
</g>
<g
   id="Layer_2">
	<g
   id="g953">
		<g
   id="g341">
			<g
   id="g231">
				<path
   d="M515.9,25.7h10.3v3.1h-6.5v3.8h6v3.1h-6v6.8h-3.8V25.7z"
   id="path211" />
				<path
   d="M532.9,25.7v16.8h-3.8V25.7H532.9z"
   id="path213" />
				<path
   d="M536.2,25.9c1.2-0.2,3-0.3,5.1-0.3c2.5,0,4.2,0.4,5.4,1.3c1,0.8,1.5,2,1.5,3.5c0,2.1-1.5,3.6-3,4.1v0.1      c1.2,0.5,1.8,1.6,2.2,3.1c0.5,1.9,1,4.1,1.4,4.7H545c-0.3-0.5-0.7-1.8-1.2-3.9c-0.5-2.1-1.2-2.7-2.7-2.7H540v6.6h-3.8V25.9z       M540,33.2h1.5c1.9,0,3-0.9,3-2.4c0-1.5-1-2.3-2.8-2.3c-0.9,0-1.5,0.1-1.7,0.1V33.2z"
   id="path215" />
				<path
   d="M561,35.4h-6.2v4h6.9v3.1H551V25.7h10.4v3.1h-6.6v3.5h6.2V35.4z"
   id="path217" />
				<path
   d="M573.2,25.7v6.5h6.3v-6.5h3.8v16.8h-3.8v-7h-6.3v7h-3.8V25.7H573.2z"
   id="path219" />
				<path
   d="M590.6,38.2l-1.2,4.3h-3.9l5.1-16.8h5l5.2,16.8h-4.1l-1.3-4.3H590.6z M594.8,35.4l-1-3.6c-0.3-1-0.6-2.2-0.8-3.2h0      c-0.2,1-0.5,2.3-0.8,3.2l-1,3.6H594.8z"
   id="path221" />
				<path
   d="M602.1,40.5l8-11.5v-0.1h-7.3v-3.1h12.2v2.2l-7.8,11.4v0.1h8v3.1h-13.1V40.5z"
   id="path223" />
				<path
   d="M621.7,38.2l-1.2,4.3h-3.9l5.1-16.8h5l5.2,16.8h-4.1l-1.3-4.3H621.7z M626,35.4l-1-3.6c-0.3-1-0.6-2.2-0.8-3.2h0      c-0.2,1-0.5,2.3-0.8,3.2l-1,3.6H626z"
   id="path225" />
				<path
   d="M634.2,25.9c1.2-0.2,3-0.3,5.1-0.3c2.5,0,4.2,0.4,5.4,1.3c1,0.8,1.5,2,1.5,3.5c0,2.1-1.5,3.6-3,4.1v0.1      c1.2,0.5,1.8,1.6,2.2,3.1c0.5,1.9,1,4.1,1.4,4.7H643c-0.3-0.5-0.7-1.8-1.2-3.9c-0.5-2.1-1.2-2.7-2.7-2.7H638v6.6h-3.8V25.9z       M638,33.2h1.5c1.9,0,3-0.9,3-2.4c0-1.5-1-2.3-2.8-2.3c-0.9,0-1.5,0.1-1.7,0.1V33.2z"
   id="path227" />
				<path
   d="M649,25.9c1.4-0.2,3.2-0.3,5.1-0.3c3.2,0,5.3,0.6,6.9,1.8c1.8,1.3,2.8,3.4,2.8,6.3c0,3.2-1.2,5.4-2.8,6.8      c-1.8,1.5-4.5,2.2-7.8,2.2c-2,0-3.4-0.1-4.3-0.2V25.9z M652.9,39.7c0.3,0.1,0.8,0.1,1.3,0.1c3.4,0,5.7-1.9,5.7-5.9      c0-3.5-2-5.3-5.3-5.3c-0.8,0-1.4,0.1-1.7,0.1V39.7z"
   id="path229" />
			</g>
			<g
   id="g339">
				<path
   d="M522,78.8v-3.9h-7.2v-2.5l6.1-9.9h4.6v9.5h1.9v2.8h-1.9v3.9H522z M522,72.1v-3.6c0-1,0-2,0.1-3H522c-0.5,1-0.9,2-1.5,3      l-2.2,3.5v0.1H522z"
   id="path233" />
				<path
   d="M535.1,62.2c1-0.2,2.4-0.3,4-0.3c2.2,0,3.6,0.4,4.6,1.2c0.9,0.6,1.4,1.6,1.4,3c0,1.6-1.1,3-2.8,3.7v0      c1.6,0.4,3.5,1.7,3.5,4.2c0,1.4-0.6,2.5-1.4,3.4c-1.2,1.1-3.1,1.6-5.8,1.6c-1.5,0-2.6-0.1-3.4-0.2V62.2z M537.2,69.1h2      c2.3,0,3.6-1.2,3.6-2.8c0-2-1.5-2.7-3.7-2.7c-1,0-1.6,0.1-1.9,0.1V69.1z M537.2,77.1c0.4,0.1,1,0.1,1.8,0.1      c2.2,0,4.3-0.8,4.3-3.3c0-2.3-2-3.2-4.3-3.2h-1.8V77.1z"
   id="path235" />
				<path
   d="M557.3,70.9h-6.5V77h7.3v1.8h-9.5V61.9h9.1v1.8h-6.9v5.3h6.5V70.9z"
   id="path237" />
				<path
   d="M560.9,61.9h2.2v15h7.2v1.8h-9.4V61.9z"
   id="path239" />
				<path
   d="M586.1,70.2c0,5.8-3.5,8.9-7.8,8.9c-4.4,0-7.6-3.4-7.6-8.5c0-5.3,3.3-8.8,7.8-8.8C583.2,61.7,586.1,65.2,586.1,70.2z       M573.1,70.5c0,3.6,1.9,6.8,5.4,6.8c3.4,0,5.4-3.2,5.4-7c0-3.3-1.8-6.8-5.4-6.8C574.9,63.4,573.1,66.8,573.1,70.5z"
   id="path241" />
				<path
   d="M591.7,78.8l-4.3-16.8h2.3l2,8.5c0.5,2.1,1,4.2,1.2,5.8h0c0.3-1.7,0.8-3.7,1.4-5.8l2.2-8.5h2.3l2,8.5      c0.5,2,0.9,4,1.2,5.8h0c0.3-1.8,0.8-3.7,1.3-5.8l2.2-8.5h2.2l-4.8,16.8H601l-2.1-8.8c-0.5-2.1-0.9-3.8-1.1-5.5h-0.1      c-0.3,1.7-0.7,3.3-1.3,5.5l-2.4,8.8H591.7z"
   id="path243" />
				<path
   d="M614.6,78.8v-1.3l1.7-1.7c4.1-3.9,6-6,6-8.5c0-1.6-0.8-3.2-3.2-3.2c-1.5,0-2.7,0.7-3.4,1.4l-0.7-1.5      c1.1-0.9,2.7-1.6,4.6-1.6c3.5,0,5,2.4,5,4.7c0,3-2.2,5.4-5.6,8.7l-1.3,1.2v0h7.3v1.8H614.6z"
   id="path245" />
				<path
   d="M637.2,64.4H631l-0.6,4.2c0.4,0,0.7-0.1,1.3-0.1c1.2,0,2.5,0.3,3.5,0.9c1.3,0.7,2.3,2.1,2.3,4.2c0,3.2-2.5,5.5-6,5.5      c-1.8,0-3.3-0.5-4-1l0.5-1.7c0.7,0.4,2,0.9,3.5,0.9c2.1,0,3.8-1.3,3.8-3.5c0-2.1-1.4-3.6-4.7-3.6c-0.9,0-1.6,0.1-2.2,0.2l1-7.8      h7.8V64.4z"
   id="path247" />
				<path
   d="M651.8,64.9c0,2-1.6,3.3-3.3,3.3c-1.9,0-3.3-1.5-3.3-3.2c0-1.9,1.5-3.4,3.3-3.4C650.6,61.7,651.8,63.2,651.8,64.9z       M646.5,65c0,1.1,0.8,2,2,2c1.1,0,2-0.9,2-2.1c0-0.9-0.6-2.1-2-2.1C647.2,62.8,646.5,64,646.5,65z"
   id="path249" />
				<path
   d="M666.1,78.2c-0.8,0.4-2.4,0.8-4.4,0.8c-4.7,0-8.3-3-8.3-8.5c0-5.3,3.6-8.8,8.8-8.8c2.1,0,3.4,0.4,4,0.7l-0.5,1.8      c-0.8-0.4-2-0.7-3.4-0.7c-3.9,0-6.6,2.5-6.6,6.9c0,4.1,2.4,6.8,6.5,6.8c1.3,0,2.7-0.3,3.5-0.7L666.1,78.2z"
   id="path251" />
				<path
   d="M516,105.1c0.7,0.4,2.2,1,3.8,1c2,0,3-1,3-2.2c0-1.6-1.6-2.3-3.3-2.3h-1.5v-2.7h1.5c1.3,0,2.9-0.5,2.9-1.9      c0-1-0.8-1.7-2.4-1.7c-1.3,0-2.7,0.6-3.4,1l-0.8-2.7c1-0.6,2.9-1.2,5-1.2c3.5,0,5.4,1.8,5.4,4c0,1.7-1,3.1-3,3.8v0      c2,0.4,3.5,1.8,3.5,3.9c0,2.9-2.5,5-6.6,5c-2.1,0-3.9-0.5-4.8-1.1L516,105.1z"
   id="path253" />
				<path
   d="M535.1,92.2c1-0.2,2.4-0.3,4-0.3c2.2,0,3.6,0.4,4.6,1.2c0.9,0.6,1.4,1.6,1.4,3c0,1.6-1.1,3-2.8,3.7v0      c1.6,0.4,3.5,1.7,3.5,4.2c0,1.4-0.6,2.5-1.4,3.4c-1.2,1.1-3.1,1.6-5.8,1.6c-1.5,0-2.6-0.1-3.4-0.2V92.2z M537.2,99.1h2      c2.3,0,3.6-1.2,3.6-2.8c0-2-1.5-2.7-3.7-2.7c-1,0-1.6,0.1-1.9,0.1V99.1z M537.2,107.1c0.4,0.1,1,0.1,1.8,0.1      c2.2,0,4.3-0.8,4.3-3.3c0-2.3-2-3.2-4.3-3.2h-1.8V107.1z"
   id="path255" />
				<path
   d="M557.3,100.9h-6.5v6.1h7.3v1.8h-9.5V91.9h9.1v1.8h-6.9v5.3h6.5V100.9z"
   id="path257" />
				<path
   d="M560.9,91.9h2.2v15h7.2v1.8h-9.4V91.9z"
   id="path259" />
				<path
   d="M586.1,100.2c0,5.8-3.5,8.9-7.8,8.9c-4.4,0-7.6-3.4-7.6-8.5c0-5.3,3.3-8.8,7.8-8.8C583.2,91.7,586.1,95.2,586.1,100.2z       M573.1,100.5c0,3.6,1.9,6.8,5.4,6.8c3.4,0,5.4-3.2,5.4-7c0-3.3-1.8-6.8-5.4-6.8C574.9,93.4,573.1,96.8,573.1,100.5z"
   id="path261" />
				<path
   d="M591.7,108.8l-4.3-16.8h2.3l2,8.5c0.5,2.1,1,4.2,1.2,5.8h0c0.3-1.7,0.8-3.7,1.4-5.8l2.2-8.5h2.3l2,8.5      c0.5,2,0.9,4,1.2,5.8h0c0.3-1.8,0.8-3.7,1.3-5.8l2.2-8.5h2.2l-4.8,16.8H601l-2.1-8.8c-0.5-2.1-0.9-3.8-1.1-5.5h-0.1      c-0.3,1.7-0.7,3.3-1.3,5.5l-2.4,8.8H591.7z"
   id="path263" />
				<path
   d="M615.2,106.3c0.6,0.4,2.1,1,3.6,1c2.8,0,3.7-1.8,3.7-3.1c0-2.3-2.1-3.2-4.2-3.2H617v-1.6h1.2c1.6,0,3.6-0.8,3.6-2.7      c0-1.3-0.8-2.4-2.8-2.4c-1.3,0-2.5,0.6-3.2,1.1l-0.6-1.6c0.8-0.6,2.5-1.2,4.2-1.2c3.2,0,4.6,1.9,4.6,3.9c0,1.7-1,3.1-3,3.8v0      c2,0.4,3.6,1.9,3.6,4.2c0,2.6-2,4.9-5.9,4.9c-1.8,0-3.4-0.6-4.2-1.1L615.2,106.3z"
   id="path265" />
				<path
   d="M638,92.5V94l-7.1,14.8h-2.3l7-14.4v0h-7.9v-1.8H638z"
   id="path267" />
				<path
   d="M651.8,94.9c0,2-1.6,3.3-3.3,3.3c-1.9,0-3.3-1.5-3.3-3.2c0-1.9,1.5-3.4,3.3-3.4C650.6,91.7,651.8,93.2,651.8,94.9z       M646.5,95c0,1.1,0.8,2,2,2c1.1,0,2-0.9,2-2.1c0-0.9-0.6-2.1-2-2.1C647.2,92.8,646.5,94,646.5,95z"
   id="path269" />
				<path
   d="M666.1,108.2c-0.8,0.4-2.4,0.8-4.4,0.8c-4.7,0-8.3-3-8.3-8.5c0-5.3,3.6-8.8,8.8-8.8c2.1,0,3.4,0.4,4,0.7l-0.5,1.8      c-0.8-0.4-2-0.7-3.4-0.7c-3.9,0-6.6,2.5-6.6,6.9c0,4.1,2.4,6.8,6.5,6.8c1.3,0,2.7-0.3,3.5-0.7L666.1,108.2z"
   id="path271" />
				<path
   d="M515.3,138.8v-2.3l2.1-1.9c3.5-3.2,5.3-5,5.3-6.9c0-1.3-0.8-2.4-2.7-2.4c-1.4,0-2.6,0.7-3.5,1.3l-1.1-2.7      c1.2-0.9,3.1-1.7,5.3-1.7c3.7,0,5.7,2.1,5.7,5.1c0,2.7-2,4.9-4.3,7l-1.5,1.2v0.1h6.1v3.1H515.3z"
   id="path273" />
				<path
   d="M535.1,122.2c1-0.2,2.4-0.3,4-0.3c2.2,0,3.6,0.4,4.6,1.2c0.9,0.6,1.4,1.6,1.4,3c0,1.6-1.1,3-2.8,3.7v0      c1.6,0.4,3.5,1.7,3.5,4.2c0,1.4-0.6,2.5-1.4,3.4c-1.2,1.1-3.1,1.6-5.8,1.6c-1.5,0-2.6-0.1-3.4-0.2V122.2z M537.2,129.1h2      c2.3,0,3.6-1.2,3.6-2.8c0-2-1.5-2.7-3.7-2.7c-1,0-1.6,0.1-1.9,0.1V129.1z M537.2,137.1c0.4,0.1,1,0.1,1.8,0.1      c2.2,0,4.3-0.8,4.3-3.3c0-2.3-2-3.2-4.3-3.2h-1.8V137.1z"
   id="path275" />
				<path
   d="M557.3,130.9h-6.5v6.1h7.3v1.8h-9.5v-16.8h9.1v1.8h-6.9v5.3h6.5V130.9z"
   id="path277" />
				<path
   d="M560.9,121.9h2.2v15h7.2v1.8h-9.4V121.9z"
   id="path279" />
				<path
   d="M586.1,130.2c0,5.8-3.5,8.9-7.8,8.9c-4.4,0-7.6-3.4-7.6-8.5c0-5.3,3.3-8.8,7.8-8.8C583.2,121.7,586.1,125.2,586.1,130.2      z M573.1,130.5c0,3.6,1.9,6.8,5.4,6.8c3.4,0,5.4-3.2,5.4-7c0-3.3-1.8-6.8-5.4-6.8C574.9,123.4,573.1,126.8,573.1,130.5z"
   id="path281" />
				<path
   d="M591.7,138.8l-4.3-16.8h2.3l2,8.5c0.5,2.1,1,4.2,1.2,5.8h0c0.3-1.7,0.8-3.7,1.4-5.8l2.2-8.5h2.3l2,8.5      c0.5,2,0.9,4,1.2,5.8h0c0.3-1.8,0.8-3.7,1.3-5.8l2.2-8.5h2.2l-4.8,16.8H601l-2.1-8.8c-0.5-2.1-0.9-3.8-1.1-5.5h-0.1      c-0.3,1.7-0.7,3.3-1.3,5.5l-2.4,8.8H591.7z"
   id="path283" />
				<path
   d="M615.9,137.2c0.5,0.1,1,0,1.8-0.1c1.3-0.2,2.5-0.7,3.4-1.6c1.1-1,1.8-2.4,2.1-4.3h-0.1c-0.9,1.1-2.2,1.7-3.8,1.7      c-2.9,0-4.8-2.2-4.8-5c0-3.1,2.2-5.8,5.5-5.8s5.4,2.7,5.4,6.8c0,3.6-1.2,6.1-2.8,7.6c-1.2,1.2-3,2-4.7,2.2      c-0.8,0.1-1.5,0.1-2,0.1V137.2z M616.7,127.9c0,2,1.2,3.4,3.1,3.4c1.5,0,2.6-0.7,3.2-1.7c0.1-0.2,0.2-0.4,0.2-0.8      c0-2.8-1-4.9-3.3-4.9C618,123.9,616.7,125.6,616.7,127.9z"
   id="path285" />
				<path
   d="M628,136.3c0.6,0.4,2.1,1,3.6,1c2.8,0,3.7-1.8,3.7-3.1c0-2.3-2.1-3.2-4.2-3.2h-1.2v-1.6h1.2c1.6,0,3.6-0.8,3.6-2.7      c0-1.3-0.8-2.4-2.8-2.4c-1.3,0-2.5,0.6-3.2,1.1l-0.6-1.6c0.8-0.6,2.5-1.2,4.2-1.2c3.2,0,4.6,1.9,4.6,3.9c0,1.7-1,3.1-3,3.8v0      c2,0.4,3.6,1.9,3.6,4.2c0,2.6-2,4.9-5.9,4.9c-1.8,0-3.4-0.6-4.2-1.1L628,136.3z"
   id="path287" />
				<path
   d="M651.8,124.9c0,2-1.6,3.3-3.3,3.3c-1.9,0-3.3-1.5-3.3-3.2c0-1.9,1.5-3.4,3.3-3.4C650.6,121.7,651.8,123.2,651.8,124.9z       M646.5,125c0,1.1,0.8,2,2,2c1.1,0,2-0.9,2-2.1c0-0.9-0.6-2.1-2-2.1C647.2,122.8,646.5,124,646.5,125z"
   id="path289" />
				<path
   d="M666.1,138.2c-0.8,0.4-2.4,0.8-4.4,0.8c-4.7,0-8.3-3-8.3-8.5c0-5.3,3.6-8.8,8.8-8.8c2.1,0,3.4,0.4,4,0.7l-0.5,1.8      c-0.8-0.4-2-0.7-3.4-0.7c-3.9,0-6.6,2.5-6.6,6.9c0,4.1,2.4,6.8,6.5,6.8c1.3,0,2.7-0.3,3.5-0.7L666.1,138.2z"
   id="path291" />
				<path
   d="M520.1,155.9L520.1,155.9l-3.1,1.5l-0.6-2.8l4.3-2h3.1v16.2h-3.7V155.9z"
   id="path293" />
				<path
   d="M537.8,163.5l-1.8,5.3h-2.2l5.7-16.8h2.6l5.7,16.8h-2.3l-1.8-5.3H537.8z M543.3,161.8l-1.6-4.8      c-0.4-1.1-0.6-2.1-0.9-3.1h0c-0.2,1-0.5,2-0.8,3l-1.6,4.9H543.3z"
   id="path295" />
				<path
   d="M550.4,152.2c1-0.2,2.4-0.3,4-0.3c2.2,0,3.6,0.4,4.6,1.2c0.9,0.6,1.4,1.6,1.4,3c0,1.6-1.1,3-2.8,3.7v0      c1.6,0.4,3.5,1.7,3.5,4.2c0,1.4-0.6,2.5-1.4,3.4c-1.2,1.1-3.1,1.6-5.8,1.6c-1.5,0-2.6-0.1-3.4-0.2V152.2z M552.5,159.1h2      c2.3,0,3.6-1.2,3.6-2.8c0-2-1.5-2.7-3.7-2.7c-1,0-1.6,0.1-1.9,0.1V159.1z M552.5,167.1c0.4,0.1,1,0.1,1.8,0.1      c2.2,0,4.3-0.8,4.3-3.3c0-2.3-2-3.2-4.3-3.2h-1.8V167.1z"
   id="path297" />
				<path
   d="M578.3,160.2c0,5.8-3.5,8.9-7.8,8.9c-4.4,0-7.6-3.4-7.6-8.5c0-5.3,3.3-8.8,7.8-8.8C575.3,151.7,578.3,155.2,578.3,160.2      z M565.2,160.5c0,3.6,1.9,6.8,5.4,6.8c3.4,0,5.4-3.2,5.4-7c0-3.3-1.7-6.8-5.4-6.8C567,153.4,565.2,156.8,565.2,160.5z"
   id="path299" />
				<path
   d="M584.8,168.8l-5.5-16.8h2.3l2.6,8.3c0.7,2.3,1.3,4.3,1.8,6.3h0c0.5-1.9,1.2-4.1,1.9-6.3l2.8-8.3h2.3l-6,16.8H584.8z"
   id="path301" />
				<path
   d="M603.8,160.9h-6.5v6.1h7.3v1.8h-9.5v-16.8h9.1v1.8h-6.9v5.3h6.5V160.9z"
   id="path303" />
				<path
   d="M613.2,167.2c0.5,0.1,1,0,1.8-0.1c1.3-0.2,2.5-0.7,3.4-1.6c1.1-1,1.8-2.4,2.1-4.3h-0.1c-0.9,1.1-2.2,1.7-3.8,1.7      c-2.9,0-4.8-2.2-4.8-5c0-3.1,2.2-5.8,5.5-5.8s5.4,2.7,5.4,6.8c0,3.6-1.2,6.1-2.8,7.6c-1.2,1.2-3,2-4.7,2.2      c-0.8,0.1-1.5,0.1-2,0.1V167.2z M614,157.9c0,2,1.2,3.4,3.1,3.4c1.5,0,2.6-0.7,3.2-1.7c0.1-0.2,0.2-0.4,0.2-0.8      c0-2.8-1-4.9-3.3-4.9C615.3,153.9,614,155.6,614,157.9z"
   id="path305" />
				<path
   d="M625.3,166.3c0.6,0.4,2.1,1,3.6,1c2.8,0,3.7-1.8,3.7-3.1c0-2.3-2.1-3.2-4.2-3.2h-1.2v-1.6h1.2c1.6,0,3.6-0.8,3.6-2.7      c0-1.3-0.8-2.4-2.8-2.4c-1.3,0-2.5,0.6-3.2,1.1l-0.6-1.6c0.8-0.6,2.5-1.2,4.2-1.2c3.2,0,4.6,1.9,4.6,3.9c0,1.7-1,3.1-3,3.8v0      c2,0.4,3.6,1.9,3.6,4.2c0,2.6-2,4.9-5.9,4.9c-1.8,0-3.4-0.6-4.2-1.1L625.3,166.3z"
   id="path307" />
				<path
   d="M649.1,154.9c0,2-1.6,3.3-3.3,3.3c-1.9,0-3.3-1.5-3.3-3.2c0-1.9,1.5-3.4,3.3-3.4C647.8,151.7,649.1,153.2,649.1,154.9z       M643.8,155c0,1.1,0.8,2,2,2c1.1,0,2-0.9,2-2.1c0-0.9-0.6-2.1-2-2.1C644.5,152.8,643.8,154,643.8,155z"
   id="path309" />
				<path
   d="M663.4,168.2c-0.8,0.4-2.4,0.8-4.4,0.8c-4.7,0-8.3-3-8.3-8.5c0-5.3,3.6-8.8,8.8-8.8c2.1,0,3.4,0.4,4,0.7l-0.5,1.8      c-0.8-0.4-2-0.7-3.4-0.7c-3.9,0-6.6,2.5-6.6,6.9c0,4.1,2.4,6.8,6.5,6.8c1.3,0,2.7-0.3,3.5-0.7L663.4,168.2z"
   id="path311" />
				<path
   d="M527.3,190.6c0,5-2,8.5-6.2,8.5c-4.2,0-6-3.8-6.1-8.4c0-4.7,2-8.4,6.2-8.4C525.6,182.3,527.3,186.1,527.3,190.6z       M518.9,190.7c0,3.7,0.9,5.5,2.3,5.5s2.3-1.8,2.3-5.5c0-3.6-0.8-5.5-2.3-5.5C519.8,185.1,518.8,186.9,518.9,190.7z"
   id="path313" />
				<path
   d="M535.1,198.8v-16.8h2.4l5.4,8.5c1.2,2,2.2,3.7,3,5.5l0,0c-0.2-2.2-0.2-4.3-0.2-6.9v-7h2v16.8h-2.2l-5.3-8.5      c-1.2-1.9-2.3-3.8-3.1-5.6l-0.1,0c0.1,2.1,0.2,4.1,0.2,6.9v7.2H535.1z"
   id="path315" />
				<path
   d="M565.9,190.2c0,5.8-3.5,8.9-7.8,8.9c-4.4,0-7.6-3.4-7.6-8.5c0-5.3,3.3-8.8,7.8-8.8C562.9,181.7,565.9,185.2,565.9,190.2      z M552.8,190.5c0,3.6,1.9,6.8,5.4,6.8c3.4,0,5.4-3.2,5.4-7c0-3.3-1.7-6.8-5.4-6.8C554.6,183.4,552.8,186.8,552.8,190.5z"
   id="path317" />
				<path
   d="M571.3,183.8h-5.1v-1.8h12.5v1.8h-5.1v15h-2.2V183.8z"
   id="path319" />
				<path
   d="M585.8,181.9h9.1v1.8H588v5.6h6.4v1.8H588v7.6h-2.2V181.9z"
   id="path321" />
				<path
   d="M598,181.9h2.2v15h7.2v1.8H598V181.9z"
   id="path323" />
				<path
   d="M612.5,193.5l-1.8,5.3h-2.2l5.7-16.8h2.6l5.7,16.8h-2.3l-1.8-5.3H612.5z M618.1,191.8l-1.6-4.8      c-0.4-1.1-0.6-2.1-0.9-3.1h0c-0.2,1-0.5,2-0.8,3l-1.6,4.9H618.1z"
   id="path325" />
				<path
   d="M639.2,191.4c-0.1-2.3-0.3-5.2-0.2-7.3h-0.1c-0.6,2-1.3,4.1-2.1,6.4l-3,8.2h-1.7l-2.7-8c-0.8-2.4-1.5-4.5-2-6.5h0      c0,2.1-0.2,4.9-0.3,7.4l-0.4,7.2h-2.1l1.2-16.8h2.8l2.9,8.1c0.7,2.1,1.3,3.9,1.7,5.7h0.1c0.4-1.7,1-3.5,1.8-5.7l3-8.1h2.8      l1,16.8h-2.1L639.2,191.4z"
   id="path327" />
				<path
   d="M659.3,191.4c-0.1-2.3-0.3-5.2-0.2-7.3H659c-0.6,2-1.3,4.1-2.1,6.4l-3,8.2h-1.7l-2.7-8c-0.8-2.4-1.5-4.5-2-6.5h0      c0,2.1-0.2,4.9-0.3,7.4l-0.4,7.2h-2.1l1.2-16.8h2.8l2.9,8.1c0.7,2.1,1.3,3.9,1.7,5.7h0.1c0.4-1.7,1-3.5,1.8-5.7l3-8.1h2.8      l1,16.8h-2.1L659.3,191.4z"
   id="path329" />
				<path
   d="M667.7,193.5l-1.8,5.3h-2.2l5.7-16.8h2.6l5.7,16.8h-2.3l-1.8-5.3H667.7z M673.2,191.8l-1.6-4.8      c-0.4-1.1-0.6-2.1-0.9-3.1h0c-0.2,1-0.5,2-0.8,3l-1.6,4.9H673.2z"
   id="path331" />
				<path
   d="M680.3,182.2c1-0.2,2.4-0.3,4-0.3c2.2,0,3.6,0.4,4.6,1.2c0.9,0.6,1.4,1.6,1.4,3c0,1.6-1.1,3-2.8,3.7v0      c1.6,0.4,3.5,1.7,3.5,4.2c0,1.4-0.6,2.5-1.4,3.4c-1.2,1.1-3.1,1.6-5.8,1.6c-1.5,0-2.6-0.1-3.4-0.2V182.2z M682.4,189.1h2      c2.3,0,3.6-1.2,3.6-2.8c0-2-1.5-2.7-3.7-2.7c-1,0-1.6,0.1-1.9,0.1V189.1z M682.4,197.1c0.4,0.1,1,0.1,1.8,0.1      c2.2,0,4.3-0.8,4.3-3.3c0-2.3-2-3.2-4.3-3.2h-1.8V197.1z"
   id="path333" />
				<path
   d="M693.8,181.9h2.2v15h7.2v1.8h-9.4V181.9z"
   id="path335" />
				<path
   d="M714.3,190.9h-6.5v6.1h7.3v1.8h-9.5v-16.8h9.1v1.8h-6.9v5.3h6.5V190.9z"
   id="path337" />
			</g>
		</g>
		<g
   id="g517">
			<g
   id="g363">
				<path
   d="M515.9,461.9c1.2-0.2,3.1-0.3,5.1-0.3c2.5,0,4.2,0.4,5.4,1.3c1,0.8,1.5,2,1.5,3.5c0,2.1-1.5,3.6-3,4.1v0.1      c1.2,0.5,1.8,1.6,2.2,3.1c0.5,1.9,1.1,4.1,1.4,4.7h-3.9c-0.3-0.5-0.7-1.8-1.2-3.9c-0.4-2.1-1.2-2.7-2.7-2.7h-1.1v6.6h-3.8V461.9      z M519.7,469.1h1.5c1.9,0,3-0.9,3-2.4c0-1.5-1.1-2.3-2.8-2.3c-0.9,0-1.5,0.1-1.7,0.1V469.1z"
   id="path343" />
				<path
   d="M540.7,471.4h-6.2v4h6.9v3.1h-10.7v-16.8h10.4v3.1h-6.6v3.5h6.2V471.4z"
   id="path345" />
				<path
   d="M548,474.2l-1.2,4.3h-3.9l5.1-16.8h5l5.2,16.8h-4.1l-1.3-4.3H548z M552.3,471.3l-1-3.6c-0.3-1-0.6-2.2-0.8-3.2h-0.1      c-0.2,1-0.5,2.3-0.8,3.2l-1,3.6H552.3z"
   id="path347" />
				<path
   d="M572.2,478c-0.7,0.3-2.3,0.7-4.3,0.7c-5.8,0-8.8-3.6-8.8-8.4c0-5.7,4.1-8.9,9.2-8.9c2,0,3.5,0.4,4.1,0.8l-0.8,3      c-0.8-0.3-1.8-0.6-3.2-0.6c-3,0-5.4,1.8-5.4,5.6c0,3.4,2,5.5,5.4,5.5c1.2,0,2.4-0.2,3.2-0.5L572.2,478z"
   id="path349" />
				<path
   d="M578.3,464.9h-4.5v-3.2h12.9v3.2h-4.6v13.6h-3.8V464.9z"
   id="path351" />
				<path
   d="M592.6,461.7v16.8h-3.8v-16.8H592.6z"
   id="path353" />
				<path
   d="M599.9,478.5l-5.4-16.8h4.2l2,7.1c0.6,2,1.1,3.9,1.5,6h0.1c0.4-2,0.9-4,1.5-5.9l2.2-7.2h4l-5.7,16.8H599.9z"
   id="path355" />
				<path
   d="M615.6,461.7v16.8h-3.8v-16.8H615.6z"
   id="path357" />
				<path
   d="M622.2,464.9h-4.5v-3.2h12.9v3.2H626v13.6h-3.8V464.9z"
   id="path359" />
				<path
   d="M636.7,478.5v-6.9l-5.3-9.9h4.3l1.7,4c0.5,1.2,0.9,2.1,1.3,3.2h0.1c0.4-1,0.8-2,1.3-3.2l1.7-4h4.3l-5.5,9.8v7H636.7z"
   id="path361" />
			</g>
			<g
   id="g515">
				<path
   d="M522,514.8v-3.9h-7.2v-2.5l6.1-9.9h4.6v9.5h1.9v2.8h-1.9v3.9H522z M522,508v-3.6c0-1,0-2,0.1-3H522c-0.5,1-0.9,2-1.5,3      l-2.2,3.5v0H522z"
   id="path365" />
				<path
   d="M549.3,507.4c-0.1-2.3-0.3-5.2-0.2-7.3h-0.1c-0.6,2-1.3,4.1-2.1,6.4l-3,8.2h-1.7l-2.7-8c-0.8-2.4-1.5-4.5-1.9-6.5h-0.1      c0,2.1-0.2,4.9-0.3,7.4l-0.4,7.2h-2.1l1.2-16.8h2.8l2.9,8.1c0.7,2.1,1.3,3.9,1.7,5.7h0.1c0.4-1.7,1-3.5,1.8-5.7l3-8.1h2.8      l1.1,16.8h-2.1L549.3,507.4z"
   id="path367" />
				<path
   d="M557.6,509.5l-1.8,5.3h-2.2l5.7-16.8h2.6l5.8,16.8h-2.3l-1.8-5.3H557.6z M563.2,507.8l-1.7-4.8      c-0.4-1.1-0.6-2.1-0.9-3.1h0c-0.2,1-0.5,2-0.8,3l-1.7,4.9H563.2z"
   id="path369" />
				<path
   d="M572,514.8v-7.1l-5.3-9.7h2.5l2.4,4.6c0.6,1.3,1.1,2.3,1.7,3.5h0.1c0.5-1.1,1-2.2,1.7-3.5l2.4-4.6h2.5l-5.6,9.7v7.2H572      z"
   id="path371" />
				<path
   d="M587.1,498.1c1.3-0.2,2.9-0.3,4.6-0.3c3.1,0,5.3,0.7,6.8,2.1c1.5,1.4,2.4,3.3,2.4,6c0,2.8-0.8,5-2.4,6.5      c-1.6,1.6-4.2,2.4-7.4,2.4c-1.5,0-2.8-0.1-3.9-0.2V498.1z M589.2,513c0.5,0.1,1.3,0.1,2.2,0.1c4.6,0,7.2-2.6,7.2-7.1      c0-4-2.2-6.5-6.8-6.5c-1.1,0-2,0.1-2.5,0.2V513z"
   id="path373" />
				<path
   d="M612.4,506.9h-6.5v6.1h7.3v1.8h-9.5v-16.8h9.1v1.8h-6.9v5.3h6.5V506.9z"
   id="path375" />
				<path
   d="M619.6,499.8h-5.1v-1.8H627v1.8h-5.2v15h-2.2V499.8z"
   id="path377" />
				<path
   d="M642.6,506.2c0,5.8-3.5,8.9-7.8,8.9c-4.4,0-7.6-3.4-7.6-8.5c0-5.3,3.3-8.8,7.8-8.8C639.6,497.6,642.6,501.2,642.6,506.2      z M629.5,506.4c0,3.6,1.9,6.8,5.4,6.8c3.4,0,5.4-3.2,5.4-7c0-3.3-1.8-6.8-5.4-6.8C631.3,499.4,629.5,502.7,629.5,506.4z"
   id="path379" />
				<path
   d="M645.4,514.8v-16.8h2.4l5.4,8.5c1.2,2,2.2,3.7,3,5.5l0,0c-0.2-2.2-0.2-4.3-0.2-6.9v-7h2.1v16.8h-2.2l-5.3-8.5      c-1.2-1.9-2.3-3.8-3.2-5.6l-0.1,0c0.1,2.1,0.2,4.1,0.2,6.9v7.2H645.4z"
   id="path381" />
				<path
   d="M664.6,509.5l-1.8,5.3h-2.2l5.7-16.8h2.6l5.8,16.8h-2.3l-1.8-5.3H664.6z M670.1,507.8l-1.7-4.8      c-0.4-1.1-0.6-2.1-0.9-3.1h0c-0.2,1-0.5,2-0.8,3l-1.7,4.9H670.1z"
   id="path383" />
				<path
   d="M678.4,499.8h-5.1v-1.8h12.5v1.8h-5.1v15h-2.2V499.8z"
   id="path385" />
				<path
   d="M696.4,506.9h-6.5v6.1h7.3v1.8h-9.5v-16.8h9.1v1.8h-6.9v5.3h6.5V506.9z"
   id="path387" />
				<path
   d="M516,541c0.7,0.3,2.2,1,3.8,1c2,0,3-0.9,3-2.2c0-1.6-1.6-2.3-3.3-2.3h-1.5v-2.7h1.5c1.3,0,2.9-0.5,2.9-1.9      c0-1-0.8-1.7-2.4-1.7c-1.3,0-2.7,0.6-3.4,1l-0.8-2.7c1-0.6,2.9-1.2,5-1.2c3.5,0,5.4,1.8,5.4,4c0,1.7-1,3.1-3,3.8v0.1      c2,0.3,3.5,1.8,3.5,3.9c0,2.9-2.5,5-6.6,5c-2.1,0-3.9-0.6-4.8-1.2L516,541z"
   id="path389" />
				<path
   d="M534.8,542.1c1,0.6,2.4,1.1,3.9,1.1c2.2,0,3.5-1.2,3.5-2.9c0-1.6-0.9-2.5-3.2-3.3c-2.8-1-4.4-2.4-4.4-4.8      c0-2.6,2.2-4.6,5.4-4.6c1.7,0,3,0.4,3.7,0.8l-0.6,1.8c-0.5-0.3-1.7-0.8-3.2-0.8c-2.3,0-3.2,1.4-3.2,2.5c0,1.6,1,2.3,3.3,3.2      c2.8,1.1,4.3,2.5,4.3,4.9c0,2.6-1.9,4.8-5.9,4.8c-1.6,0-3.4-0.5-4.3-1.1L534.8,542.1z"
   id="path391" />
				<path
   d="M549.6,527.9v7h8.1v-7h2.2v16.8h-2.2v-7.9h-8.1v7.9h-2.2v-16.8H549.6z"
   id="path393" />
				<path
   d="M578.1,536.2c0,5.8-3.5,8.9-7.8,8.9c-4.4,0-7.6-3.4-7.6-8.5c0-5.3,3.3-8.8,7.8-8.8C575.1,527.6,578.1,531.2,578.1,536.2      z M565,536.4c0,3.6,1.9,6.8,5.4,6.8c3.4,0,5.4-3.2,5.4-7c0-3.3-1.7-6.8-5.4-6.8C566.8,529.4,565,532.7,565,536.4z"
   id="path395" />
				<path
   d="M592.7,544.2c-0.8,0.4-2.4,0.8-4.4,0.8c-4.7,0-8.3-3-8.3-8.5c0-5.3,3.6-8.8,8.8-8.8c2.1,0,3.4,0.5,4,0.8l-0.5,1.8      c-0.8-0.4-2-0.7-3.4-0.7c-3.9,0-6.6,2.5-6.6,6.9c0,4.1,2.4,6.8,6.5,6.8c1.3,0,2.7-0.3,3.5-0.7L592.7,544.2z"
   id="path397" />
				<path
   d="M595.4,527.9h2.2v8.1h0.1c0.4-0.7,0.9-1.2,1.3-1.8l5.1-6.3h2.7l-6.1,7.1l6.6,9.7h-2.6l-5.5-8.3l-1.6,1.8v6.4h-2.2V527.9      z"
   id="path399" />
				<path
   d="M620.6,531.5v5.9h5.6v1.5h-5.6v5.9H619v-5.9h-5.6v-1.5h5.6v-5.9H620.6z"
   id="path401" />
				<path
   d="M636.6,527.9v7h8.1v-7h2.2v16.8h-2.2v-7.9h-8.1v7.9h-2.2v-16.8H636.6z"
   id="path403" />
				<path
   d="M659.5,536.9h-6.5v6.1h7.3v1.8h-9.5v-16.8h9.1v1.8h-6.9v5.3h6.5V536.9z"
   id="path405" />
				<path
   d="M665.8,539.5l-1.8,5.3h-2.2l5.7-16.8h2.6l5.8,16.8h-2.3l-1.8-5.3H665.8z M671.3,537.8l-1.7-4.8      c-0.4-1.1-0.6-2.1-0.9-3.1h0c-0.2,1-0.5,2-0.8,3l-1.7,4.9H671.3z"
   id="path407" />
				<path
   d="M679.6,529.8h-5.1v-1.8H687v1.8h-5.1v15h-2.2V529.8z"
   id="path409" />
				<path
   class="st15"
   d="M516,571c0.7,0.3,2.2,1,3.8,1c2,0,3-0.9,3-2.2c0-1.6-1.6-2.3-3.3-2.3h-1.5v-2.7h1.5c1.3,0,2.9-0.5,2.9-1.9      c0-1-0.8-1.7-2.4-1.7c-1.3,0-2.7,0.6-3.4,1l-0.8-2.7c1-0.6,2.9-1.2,5-1.2c3.5,0,5.4,1.8,5.4,4c0,1.7-1,3.1-3,3.8v0.1      c2,0.3,3.5,1.8,3.5,3.9c0,2.9-2.5,5-6.6,5c-2.1,0-3.9-0.6-4.8-1.2L516,571z"
   id="path411" />
				<path
   d="M549.3,567.4c-0.1-2.3-0.3-5.2-0.2-7.3h-0.1c-0.6,2-1.3,4.1-2.1,6.4l-3,8.2h-1.7l-2.7-8c-0.8-2.4-1.5-4.5-1.9-6.5h-0.1      c0,2.1-0.2,4.9-0.3,7.4l-0.4,7.2h-2.1l1.2-16.8h2.8l2.9,8.1c0.7,2.1,1.3,3.9,1.7,5.7h0.1c0.4-1.7,1-3.5,1.8-5.7l3-8.1h2.8      l1.1,16.8h-2.1L549.3,567.4z"
   id="path413" />
				<path
   d="M557.6,569.5l-1.8,5.3h-2.2l5.7-16.8h2.6l5.8,16.8h-2.3l-1.8-5.3H557.6z M563.2,567.8l-1.7-4.8      c-0.4-1.1-0.6-2.1-0.9-3.1h0c-0.2,1-0.5,2-0.8,3l-1.7,4.9H563.2z"
   id="path415" />
				<path
   d="M572,574.8v-7.1l-5.3-9.7h2.5l2.4,4.6c0.6,1.3,1.1,2.3,1.7,3.5h0.1c0.5-1.1,1-2.2,1.7-3.5l2.4-4.6h2.5l-5.6,9.7v7.2H572      z"
   id="path417" />
				<path
   d="M587.1,558.1c1.3-0.2,2.9-0.3,4.6-0.3c3.1,0,5.3,0.7,6.8,2.1c1.5,1.4,2.4,3.3,2.4,6c0,2.8-0.8,5-2.4,6.5      c-1.6,1.6-4.2,2.4-7.4,2.4c-1.5,0-2.8-0.1-3.9-0.2V558.1z M589.2,573c0.5,0.1,1.3,0.1,2.2,0.1c4.6,0,7.2-2.6,7.2-7.1      c0-4-2.2-6.5-6.8-6.5c-1.1,0-2,0.1-2.5,0.2V573z"
   id="path419" />
				<path
   d="M612.4,566.9h-6.5v6.1h7.3v1.8h-9.5v-16.8h9.1v1.8h-6.9v5.3h6.5V566.9z"
   id="path421" />
				<path
   d="M619.6,559.8h-5.1v-1.8H627v1.8h-5.2v15h-2.2V559.8z"
   id="path423" />
				<path
   d="M642.6,566.2c0,5.8-3.5,8.9-7.8,8.9c-4.4,0-7.6-3.4-7.6-8.5c0-5.3,3.3-8.8,7.8-8.8C639.6,557.6,642.6,561.2,642.6,566.2      z M629.5,566.4c0,3.6,1.9,6.8,5.4,6.8c3.4,0,5.4-3.2,5.4-7c0-3.3-1.8-6.8-5.4-6.8C631.3,559.4,629.5,562.7,629.5,566.4z"
   id="path425" />
				<path
   d="M645.4,574.8v-16.8h2.4l5.4,8.5c1.2,2,2.2,3.7,3,5.5l0,0c-0.2-2.2-0.2-4.3-0.2-6.9v-7h2.1v16.8h-2.2l-5.3-8.5      c-1.2-1.9-2.3-3.8-3.2-5.6l-0.1,0c0.1,2.1,0.2,4.1,0.2,6.9v7.2H645.4z"
   id="path427" />
				<path
   d="M664.6,569.5l-1.8,5.3h-2.2l5.7-16.8h2.6l5.8,16.8h-2.3l-1.8-5.3H664.6z M670.1,567.8l-1.7-4.8      c-0.4-1.1-0.6-2.1-0.9-3.1h0c-0.2,1-0.5,2-0.8,3l-1.7,4.9H670.1z"
   id="path429" />
				<path
   d="M678.4,559.8h-5.1v-1.8h12.5v1.8h-5.1v15h-2.2V559.8z"
   id="path431" />
				<path
   d="M696.4,566.9h-6.5v6.1h7.3v1.8h-9.5v-16.8h9.1v1.8h-6.9v5.3h6.5V566.9z"
   id="path433" />
				<path
   d="M515.3,604.8v-2.3l2.1-1.9c3.5-3.2,5.3-5,5.3-6.9c0-1.3-0.8-2.4-2.7-2.4c-1.4,0-2.6,0.7-3.5,1.3l-1.1-2.7      c1.2-0.9,3.1-1.7,5.3-1.7c3.7,0,5.7,2.1,5.7,5.1c0,2.7-2,4.9-4.3,7l-1.5,1.2v0h6.1v3.1H515.3z"
   id="path435" />
				<path
   d="M538.8,604.8l-5.5-16.8h2.3l2.6,8.3c0.7,2.3,1.3,4.3,1.8,6.3h0.1c0.5-2,1.2-4.1,1.9-6.3l2.8-8.3h2.3l-6,16.8H538.8z"
   id="path437" />
				<path
   d="M551.2,587.9v16.8H549v-16.8H551.2z"
   id="path439" />
				<path
   d="M569.4,596.2c0,5.8-3.5,8.9-7.8,8.9c-4.4,0-7.6-3.4-7.6-8.5c0-5.3,3.3-8.8,7.8-8.8C566.4,587.6,569.4,591.2,569.4,596.2      z M556.3,596.4c0,3.6,1.9,6.8,5.4,6.8c3.4,0,5.4-3.2,5.4-7c0-3.3-1.8-6.8-5.4-6.8C558.1,589.4,556.3,592.7,556.3,596.4z"
   id="path441" />
				<path
   d="M572.2,587.9h2.2v15h7.2v1.8h-9.4V587.9z"
   id="path443" />
				<path
   d="M592.7,596.9h-6.5v6.1h7.3v1.8H584v-16.8h9.1v1.8h-6.9v5.3h6.5V596.9z"
   id="path445" />
				<path
   d="M596.3,604.8v-16.8h2.4l5.4,8.5c1.2,2,2.2,3.7,3,5.5l0,0c-0.2-2.2-0.2-4.3-0.2-6.9v-7h2.1v16.8h-2.2l-5.3-8.5      c-1.2-1.9-2.3-3.8-3.2-5.6l-0.1,0c0.1,2.1,0.2,4.1,0.2,6.9v7.2H596.3z"
   id="path447" />
				<path
   d="M616,589.8h-5.1v-1.8h12.5v1.8h-5.1v15H616V589.8z"
   id="path449" />
				<path
   d="M630.5,588.1c1.1-0.2,2.7-0.3,4.2-0.3c2.3,0,3.8,0.4,4.9,1.4c0.8,0.8,1.3,1.9,1.3,3.2c0,2.2-1.4,3.7-3.2,4.3v0.1      c1.3,0.5,2.1,1.7,2.5,3.4c0.6,2.3,0.9,4,1.3,4.6h-2.2c-0.3-0.5-0.7-1.9-1.1-4c-0.5-2.3-1.4-3.2-3.4-3.3h-2v7.3h-2.2V588.1z       M632.7,595.8h2.2c2.3,0,3.8-1.3,3.8-3.2c0-2.2-1.6-3.1-3.9-3.1c-1.1,0-1.8,0.1-2.2,0.2V595.8z"
   id="path451" />
				<path
   d="M652.7,596.9h-6.5v6.1h7.3v1.8h-9.5v-16.8h9.1v1.8h-6.9v5.3h6.5V596.9z"
   id="path453" />
				<path
   d="M659,599.5l-1.8,5.3H655l5.7-16.8h2.6l5.7,16.8h-2.3l-1.8-5.3H659z M664.5,597.8l-1.6-4.8c-0.4-1.1-0.6-2.1-0.9-3.1      h-0.1c-0.2,1-0.5,2-0.8,3l-1.6,4.9H664.5z"
   id="path455" />
				<path
   d="M682.9,604.2c-0.8,0.4-2.4,0.8-4.4,0.8c-4.7,0-8.3-3-8.3-8.5c0-5.3,3.6-8.8,8.8-8.8c2.1,0,3.4,0.5,4,0.8l-0.5,1.8      c-0.8-0.4-2-0.7-3.4-0.7c-3.9,0-6.6,2.5-6.6,6.9c0,4.1,2.4,6.8,6.5,6.8c1.3,0,2.7-0.3,3.5-0.7L682.9,604.2z"
   id="path457" />
				<path
   d="M689.6,589.8h-5.1v-1.8h12.5v1.8h-5.2v15h-2.2V589.8z"
   id="path459" />
				<path
   d="M701,587.9v16.8h-2.2v-16.8H701z"
   id="path461" />
				<path
   d="M719.2,596.2c0,5.8-3.5,8.9-7.8,8.9c-4.4,0-7.6-3.4-7.6-8.5c0-5.3,3.3-8.8,7.8-8.8C716.2,587.6,719.2,591.2,719.2,596.2      z M706.1,596.4c0,3.6,1.9,6.8,5.4,6.8c3.4,0,5.4-3.2,5.4-7c0-3.3-1.7-6.8-5.4-6.8C707.9,589.4,706.1,592.7,706.1,596.4z"
   id="path463" />
				<path
   d="M722,604.8v-16.8h2.4l5.4,8.5c1.2,2,2.2,3.7,3,5.5l0.1,0c-0.2-2.2-0.2-4.3-0.2-6.9v-7h2v16.8h-2.2l-5.3-8.5      c-1.2-1.9-2.3-3.8-3.1-5.6l-0.1,0c0.1,2.1,0.2,4.1,0.2,6.9v7.2H722z"
   id="path465" />
				<path
   d="M520.1,621.9L520.1,621.9l-3.2,1.5l-0.6-2.8l4.3-2h3.1v16.2h-3.7V621.9z"
   id="path467" />
				<path
   d="M537.2,617.9v10c0,3.8,1.7,5.4,3.9,5.4c2.5,0,4.1-1.6,4.1-5.4v-10h2.2v9.8c0,5.2-2.7,7.3-6.4,7.3c-3.4,0-6-2-6-7.2v-9.9      H537.2z"
   id="path469" />
				<path
   d="M551.2,634.8v-16.8h2.4l5.4,8.5c1.2,2,2.2,3.7,3,5.5l0,0c-0.2-2.2-0.2-4.3-0.2-6.9v-7h2.1v16.8h-2.2l-5.3-8.5      c-1.2-1.9-2.3-3.8-3.2-5.6l-0.1,0c0.1,2.1,0.2,4.1,0.2,6.9v7.2H551.2z"
   id="path471" />
				<path
   d="M567.4,632.1c1,0.6,2.4,1.1,3.9,1.1c2.2,0,3.5-1.2,3.5-2.9c0-1.6-0.9-2.5-3.2-3.3c-2.7-1-4.4-2.4-4.4-4.8      c0-2.6,2.2-4.6,5.4-4.6c1.7,0,3,0.4,3.7,0.8l-0.6,1.8c-0.6-0.3-1.7-0.8-3.2-0.8c-2.3,0-3.2,1.4-3.2,2.5c0,1.6,1,2.3,3.3,3.2      c2.8,1.1,4.3,2.5,4.3,4.9c0,2.6-1.9,4.8-5.9,4.8c-1.6,0-3.4-0.5-4.3-1.1L567.4,632.1z"
   id="path473" />
				<path
   d="M583.2,619.8h-5.1v-1.8h12.5v1.8h-5.1v15h-2.2V619.8z"
   id="path475" />
				<path
   d="M593.3,629.5l-1.8,5.3h-2.2l5.7-16.8h2.6l5.7,16.8h-2.3l-1.8-5.3H593.3z M598.8,627.8l-1.6-4.8      c-0.4-1.1-0.6-2.1-0.9-3.1h-0.1c-0.2,1-0.5,2-0.8,3l-1.6,4.9H598.8z"
   id="path477" />
				<path
   d="M605.9,618.1c0.9-0.2,2.4-0.3,4-0.3c2.2,0,3.6,0.4,4.6,1.2c0.9,0.6,1.4,1.6,1.4,3c0,1.6-1.1,3-2.8,3.7v0.1      c1.6,0.4,3.5,1.7,3.5,4.2c0,1.4-0.6,2.5-1.4,3.4c-1.2,1.1-3.1,1.6-5.8,1.6c-1.5,0-2.6-0.1-3.4-0.2V618.1z M608,625h2      c2.3,0,3.6-1.2,3.6-2.8c0-2-1.5-2.7-3.7-2.7c-1,0-1.6,0.1-1.9,0.1V625z M608,633.1c0.4,0.1,1.1,0.1,1.8,0.1      c2.2,0,4.3-0.8,4.3-3.3c0-2.3-2-3.2-4.3-3.2H608V633.1z"
   id="path479" />
				<path
   d="M619.4,617.9h2.2v15h7.2v1.8h-9.4V617.9z"
   id="path481" />
				<path
   d="M639.9,626.9h-6.5v6.1h7.3v1.8h-9.5v-16.8h9.1v1.8h-6.9v5.3h6.5V626.9z"
   id="path483" />
				<path
   d="m 651.36719,617.9 v 16.8 h -2.2 v -16.8 z"
   id="path485" />
				<path
   d="m 655.16719,617.9 h 9.1 v 1.8 h -6.9 v 5.6 h 6.4 v 1.8 h -6.4 v 7.6 h -2.2 z"
   id="path487" />
				<path
   d="m 674.76719,617.9 v 7 h 8.1 v -7 h 2.2 v 16.8 h -2.2 v -7.9 h -8.1 v 7.9 h -2.1 v -16.8 z"
   id="path489" />
				<path
   d="m 697.66719,626.9 h -6.5 v 6.1 h 7.3 v 1.8 h -9.5 V 618 h 9.1 v 1.8 h -6.9 v 5.3 h 6.5 z"
   id="path491" />
				<path
   d="m 703.96719,629.5 -1.8,5.3 h -2.2 l 5.7,-16.8 h 2.6 l 5.8,16.8 h -2.3 l -1.8,-5.3 z m 5.5,-1.7 -1.7,-4.8 c -0.4,-1.1 -0.6,-2.1 -0.9,-3.1 v 0 c -0.2,1 -0.5,2 -0.8,3 l -1.7,4.9 z"
   id="path493" />
				<path
   d="m 717.76719,619.8 h -5.1 V 618 h 12.5 v 1.8 h -5.1 v 15 h -2.2 v -15 z"
   id="path495" />
				<path
   d="m 735.76719,626.9 h -6.5 v 6.1 h 7.3 v 1.8 h -9.5 V 618 h 9.1 v 1.8 h -6.9 v 5.3 h 6.5 z"
   id="path497" />
				<path
   d="m 739.36719,618.1 c 1.3,-0.2 2.9,-0.3 4.6,-0.3 3.1,0 5.3,0.7 6.8,2.1 1.5,1.4 2.4,3.3 2.4,6 0,2.8 -0.8,5 -2.4,6.5 -1.6,1.6 -4.2,2.4 -7.4,2.4 -1.6,0 -2.8,-0.1 -3.9,-0.2 v -16.5 z m 2.1,14.9 c 0.6,0.1 1.3,0.1 2.2,0.1 4.6,0 7.2,-2.6 7.2,-7.1 0,-4 -2.2,-6.5 -6.8,-6.5 -1.1,0 -2,0.1 -2.5,0.2 V 633 Z"
   id="path499" />
				<path
   d="M527.3,656.6c0,5-2,8.5-6.2,8.5c-4.2,0-6-3.8-6.1-8.4c0-4.7,2-8.4,6.2-8.4C525.6,648.2,527.3,652.1,527.3,656.6z       M518.9,656.7c0,3.7,0.9,5.5,2.3,5.5s2.3-1.8,2.3-5.5c0-3.6-0.8-5.5-2.3-5.5C519.8,651.1,518.8,652.9,518.9,656.7z"
   id="path501" />
				<path
   d="M534.8,662.1c1,0.6,2.4,1.1,3.9,1.1c2.2,0,3.5-1.2,3.5-2.9c0-1.6-0.9-2.5-3.2-3.3c-2.8-1-4.4-2.4-4.4-4.8      c0-2.6,2.2-4.6,5.4-4.6c1.7,0,3,0.4,3.7,0.8l-0.6,1.8c-0.5-0.3-1.7-0.8-3.2-0.8c-2.3,0-3.2,1.4-3.2,2.5c0,1.6,1,2.3,3.3,3.2      c2.8,1.1,4.3,2.5,4.3,4.9c0,2.6-1.9,4.8-5.9,4.8c-1.6,0-3.4-0.5-4.3-1.1L534.8,662.1z"
   id="path503" />
				<path
   d="M550.6,649.8h-5.1v-1.8h12.5v1.8h-5.2v15h-2.2V649.8z"
   id="path505" />
				<path
   d="M560.7,659.5l-1.8,5.3h-2.2l5.7-16.8h2.6l5.8,16.8h-2.3l-1.8-5.3H560.7z M566.2,657.8l-1.7-4.8      c-0.4-1.1-0.6-2.1-0.9-3.1h0c-0.2,1-0.5,2-0.8,3l-1.7,4.9H566.2z"
   id="path507" />
				<path
   d="M573.2,648.1c1-0.2,2.4-0.3,4-0.3c2.2,0,3.6,0.4,4.6,1.2c0.9,0.6,1.4,1.6,1.4,3c0,1.6-1.1,3-2.8,3.7v0.1      c1.6,0.4,3.5,1.7,3.5,4.2c0,1.4-0.6,2.5-1.4,3.4c-1.2,1.1-3.1,1.6-5.8,1.6c-1.5,0-2.7-0.1-3.4-0.2V648.1z M575.4,655h2      c2.3,0,3.6-1.2,3.6-2.8c0-2-1.5-2.7-3.7-2.7c-1,0-1.6,0.1-1.9,0.1V655z M575.4,663.1c0.4,0.1,1,0.1,1.8,0.1      c2.2,0,4.3-0.8,4.3-3.3c0-2.3-2-3.2-4.3-3.2h-1.8V663.1z"
   id="path509" />
				<path
   d="M586.8,647.9h2.2v15h7.2v1.8h-9.4V647.9z"
   id="path511" />
				<path
   d="M607.3,656.9h-6.5v6.1h7.3v1.8h-9.5v-16.8h9.1v1.8h-6.9v5.3h6.5V656.9z"
   id="path513" />
			</g>
		</g>
		<g
   id="g675">
			<g
   id="g543">
				<path
   d="M29.7,25.7v6.5H36v-6.5h3.8v16.8H36v-7h-6.3v7h-3.8V25.7H29.7z"
   id="path519" />
				<path
   d="M53.1,35.4h-6.2v4h6.9v3.1H43.1V25.7h10.4v3.1h-6.6v3.5h6.2V35.4z"
   id="path521" />
				<path
   d="M60.4,38.2l-1.2,4.3h-3.9l5.1-16.8h5l5.2,16.8h-4.1l-1.3-4.3H60.4z M64.6,35.4l-1-3.6c-0.3-1-0.6-2.2-0.8-3.2h-0.1      c-0.2,1-0.5,2.3-0.8,3.2l-1,3.6H64.6z"
   id="path523" />
				<path
   d="M72.8,25.7h3.8v13.6h6.7v3.2H72.8V25.7z"
   id="path525" />
				<path
   d="M86.3,28.9h-4.5v-3.2h12.9v3.2h-4.6v13.6h-3.8V28.9z"
   id="path527" />
				<path
   d="M100.5,25.7v6.5h6.3v-6.5h3.8v16.8h-3.8v-7h-6.3v7h-3.8V25.7H100.5z"
   id="path529" />
				<path
   d="M122.8,25.7v6.5h6.3v-6.5h3.8v16.8h-3.8v-7h-6.3v7H119V25.7H122.8z"
   id="path531" />
				<path
   d="M140.1,38.2l-1.2,4.3H135l5.1-16.8h5l5.2,16.8h-4.1l-1.3-4.3H140.1z M144.4,35.4l-1-3.6c-0.3-1-0.6-2.2-0.8-3.2h-0.1      c-0.2,1-0.5,2.3-0.8,3.2l-1,3.6H144.4z"
   id="path533" />
				<path
   d="M151.7,40.5l8-11.5v-0.1h-7.3v-3.1h12.2v2.2l-7.8,11.4v0.1h8v3.1h-13.1V40.5z"
   id="path535" />
				<path
   d="M171.3,38.2l-1.2,4.3h-3.9l5.1-16.8h5l5.2,16.8h-4.1l-1.3-4.3H171.3z M175.6,35.4l-1-3.6c-0.3-1-0.6-2.2-0.8-3.2h0      c-0.2,1-0.5,2.3-0.8,3.2l-1,3.6H175.6z"
   id="path537" />
				<path
   d="M183.8,25.9c1.2-0.2,3-0.3,5.1-0.3c2.5,0,4.2,0.4,5.4,1.3c1,0.8,1.5,2,1.5,3.5c0,2.1-1.5,3.6-3,4.1v0.1      c1.2,0.5,1.8,1.6,2.2,3.1c0.5,1.9,1,4.1,1.4,4.7h-3.9c-0.3-0.5-0.7-1.8-1.2-3.9c-0.5-2.1-1.2-2.7-2.7-2.7h-1.1v6.6h-3.8V25.9z       M187.6,33.2h1.5c1.9,0,3-0.9,3-2.4c0-1.5-1-2.3-2.8-2.3c-0.9,0-1.5,0.1-1.7,0.1V33.2z"
   id="path539" />
				<path
   d="M198.6,25.9c1.4-0.2,3.2-0.3,5.1-0.3c3.2,0,5.3,0.6,6.9,1.8c1.7,1.3,2.8,3.4,2.8,6.3c0,3.2-1.2,5.4-2.8,6.8      c-1.8,1.5-4.5,2.2-7.8,2.2c-2,0-3.4-0.1-4.3-0.2V25.9z M202.4,39.7c0.3,0.1,0.8,0.1,1.3,0.1c3.4,0,5.7-1.9,5.7-5.9      c0-3.5-2-5.3-5.3-5.3c-0.8,0-1.4,0.1-1.7,0.1V39.7z"
   id="path541" />
			</g>
			<g
   id="g673">
				<path
   d="M32,78.8v-3.9h-7.2v-2.5l6.1-9.9h4.6v9.5h2v2.8h-2v3.9H32z M32,72.1v-3.6c0-1,0-2,0.1-3H32c-0.5,1-0.9,2-1.5,3L28.3,72      v0.1H32z"
   id="path545" />
				<path
   d="M45.3,62.2c1.3-0.2,2.9-0.3,4.6-0.3c3.1,0,5.3,0.7,6.8,2.1c1.5,1.4,2.4,3.3,2.4,6c0,2.7-0.8,5-2.4,6.5      c-1.6,1.6-4.2,2.4-7.4,2.4c-1.5,0-2.8-0.1-3.9-0.2V62.2z M47.5,77.1c0.5,0.1,1.3,0.1,2.2,0.1c4.6,0,7.2-2.6,7.2-7.1      c0-4-2.2-6.5-6.8-6.5c-1.1,0-2,0.1-2.5,0.2V77.1z"
   id="path547" />
				<path
   d="M70.7,70.9h-6.5V77h7.3v1.8h-9.5V61.9H71v1.8h-6.9v5.3h6.5V70.9z"
   id="path549" />
				<path
   d="M77,73.5l-1.7,5.3H73l5.7-16.8h2.6l5.7,16.8h-2.3l-1.8-5.3H77z M82.5,71.8l-1.6-4.8c-0.4-1.1-0.6-2.1-0.9-3.1h0      c-0.2,1-0.5,2-0.8,3l-1.6,4.9H82.5z"
   id="path551" />
				<path
   d="M89.5,62.2c1.3-0.2,2.9-0.3,4.6-0.3c3.1,0,5.3,0.7,6.8,2.1c1.5,1.4,2.4,3.3,2.4,6c0,2.7-0.8,5-2.4,6.5      c-1.6,1.6-4.2,2.4-7.4,2.4c-1.5,0-2.8-0.1-3.9-0.2V62.2z M91.7,77.1c0.5,0.1,1.3,0.1,2.2,0.1c4.6,0,7.2-2.6,7.2-7.1      c0-4-2.2-6.5-6.8-6.5c-1.1,0-2,0.1-2.5,0.2V77.1z"
   id="path553" />
				<path
   d="M106.2,61.9h2.2v15h7.2v1.8h-9.4V61.9z"
   id="path555" />
				<path
   d="M119.6,78.8v-7.1l-5.3-9.7h2.5l2.4,4.6c0.6,1.3,1.1,2.3,1.7,3.5h0.1c0.5-1.1,1-2.2,1.7-3.5l2.4-4.6h2.5l-5.6,9.7v7.2      H119.6z"
   id="path557" />
				<path
   d="M25.9,105.1c0.7,0.4,2.2,1,3.8,1c2,0,3-1,3-2.2c0-1.6-1.6-2.3-3.3-2.3h-1.5v-2.7h1.5c1.3,0,2.9-0.5,2.9-1.9      c0-1-0.8-1.7-2.4-1.7c-1.3,0-2.7,0.6-3.4,1l-0.8-2.7c1-0.6,2.9-1.2,5-1.2c3.5,0,5.4,1.8,5.4,4c0,1.7-1,3.1-3,3.8v0      c1.9,0.4,3.5,1.8,3.5,3.9c0,2.9-2.5,5-6.6,5c-2.1,0-3.9-0.5-4.8-1.1L25.9,105.1z"
   id="path559" />
				<path
   d="M53.8,100.9h-6.5v6.1h7.3v1.8H45V91.9h9.1v1.8h-6.9v5.3h6.5V100.9z"
   id="path561" />
				<path
   d="M66.6,108.8l-2.1-3.7c-0.9-1.4-1.4-2.3-1.9-3.3h0c-0.5,1-1,1.9-1.8,3.3l-2,3.7h-2.5l5.1-8.5l-4.9-8.3h2.5l2.2,3.9      c0.6,1.1,1.1,1.9,1.5,2.8h0.1c0.5-1,0.9-1.8,1.5-2.8l2.3-3.9H69l-5.1,8.2l5.2,8.6H66.6z"
   id="path563" />
				<path
   d="M75,93.8h-5.1v-1.8h12.5v1.8h-5.1v15H75V93.8z"
   id="path565" />
				<path
   d="M84.2,92.2c1.1-0.2,2.7-0.3,4.2-0.3c2.3,0,3.8,0.4,4.9,1.4c0.8,0.8,1.3,1.9,1.3,3.2c0,2.2-1.4,3.7-3.2,4.3v0.1      c1.3,0.4,2.1,1.6,2.5,3.4c0.5,2.3,1,4,1.3,4.6H93c-0.3-0.5-0.7-1.9-1.1-4c-0.5-2.3-1.4-3.2-3.4-3.3h-2v7.3h-2.2V92.2z       M86.4,99.8h2.2c2.3,0,3.8-1.3,3.8-3.2c0-2.2-1.6-3.1-3.9-3.1c-1,0-1.8,0.1-2.1,0.2V99.8z"
   id="path567" />
				<path
   d="M106.4,100.9h-6.5v6.1h7.3v1.8h-9.5V91.9h9.1v1.8h-6.9v5.3h6.5V100.9z"
   id="path569" />
				<path
   d="M124.2,101.4c-0.1-2.3-0.3-5.2-0.2-7.3h-0.1c-0.6,2-1.3,4.1-2.1,6.4l-3,8.2h-1.6l-2.7-8c-0.8-2.4-1.5-4.5-1.9-6.5h0      c0,2.1-0.2,4.9-0.3,7.4l-0.5,7.2h-2.1l1.2-16.8h2.8l2.9,8.1c0.7,2.1,1.3,3.9,1.7,5.7h0.1c0.4-1.7,1-3.5,1.8-5.7l3-8.1h2.8      l1,16.8h-2.1L124.2,101.4z"
   id="path571" />
				<path
   d="M138.8,100.9h-6.5v6.1h7.3v1.8h-9.5V91.9h9.1v1.8h-6.9v5.3h6.5V100.9z"
   id="path573" />
				<path
   d="M147.7,92.2c1.3-0.2,2.9-0.3,4.6-0.3c3.1,0,5.3,0.7,6.8,2.1c1.5,1.4,2.4,3.3,2.4,6c0,2.7-0.8,5-2.4,6.5      c-1.6,1.6-4.2,2.4-7.4,2.4c-1.5,0-2.8-0.1-3.9-0.2V92.2z M149.9,107.1c0.5,0.1,1.3,0.1,2.2,0.1c4.6,0,7.2-2.6,7.2-7.1      c0-4-2.2-6.5-6.8-6.5c-1.1,0-2,0.1-2.5,0.2V107.1z"
   id="path575" />
				<path
   d="M166.7,103.5l-1.8,5.3h-2.2l5.7-16.8h2.6l5.7,16.8h-2.3l-1.8-5.3H166.7z M172.2,101.8l-1.6-4.8      c-0.4-1.1-0.6-2.1-0.9-3.1h0c-0.2,1-0.5,2-0.9,3l-1.6,4.9H172.2z"
   id="path577" />
				<path
   d="M179.3,108.8V91.9h2.4l5.4,8.5c1.2,2,2.2,3.7,3,5.5l0,0c-0.2-2.2-0.2-4.3-0.2-6.9v-7h2v16.8h-2.2l-5.3-8.5      c-1.2-1.9-2.3-3.8-3.1-5.6l-0.1,0c0.1,2.1,0.2,4.1,0.2,6.9v7.2H179.3z"
   id="path579" />
				<path
   d="M208.6,108c-1,0.4-2.9,0.9-5.2,0.9c-2.5,0-4.6-0.6-6.3-2.2c-1.5-1.4-2.3-3.6-2.3-6.3c0-5,3.5-8.7,9.1-8.7      c1.9,0,3.5,0.4,4.2,0.8l-0.5,1.8c-0.9-0.4-2-0.7-3.7-0.7c-4.1,0-6.8,2.5-6.8,6.8c0,4.3,2.6,6.8,6.5,6.8c1.4,0,2.4-0.2,2.9-0.5      v-5H203v-1.7h5.5V108z"
   id="path581" />
				<path
   d="M220.6,100.9h-6.5v6.1h7.3v1.8h-9.5V91.9h9.1v1.8h-6.9v5.3h6.5V100.9z"
   id="path583" />
				<path
   d="M224.2,92.2c1.1-0.2,2.7-0.3,4.2-0.3c2.3,0,3.8,0.4,4.9,1.4c0.8,0.8,1.3,1.9,1.3,3.2c0,2.2-1.4,3.7-3.2,4.3v0.1      c1.3,0.4,2.1,1.6,2.5,3.4c0.5,2.3,1,4,1.3,4.6h-2.2c-0.3-0.5-0.7-1.9-1.1-4c-0.5-2.3-1.4-3.2-3.4-3.3h-2v7.3h-2.2V92.2z       M226.4,99.8h2.2c2.3,0,3.8-1.3,3.8-3.2c0-2.2-1.6-3.1-3.9-3.1c-1,0-1.8,0.1-2.1,0.2V99.8z"
   id="path585" />
				<path
   d="M25.3,138.8v-2.3l2.1-1.9c3.5-3.2,5.3-5,5.3-6.9c0-1.3-0.8-2.4-2.7-2.4c-1.4,0-2.6,0.7-3.5,1.3l-1.1-2.7      c1.2-0.9,3.1-1.7,5.3-1.7c3.7,0,5.7,2.1,5.7,5.1c0,2.7-2,4.9-4.3,7l-1.5,1.2v0.1h6.1v3.1H25.3z"
   id="path587" />
				<path
   d="M47.2,121.9v7h8.1v-7h2.2v16.8h-2.2v-7.9h-8.1v7.9H45v-16.8H47.2z"
   id="path589" />
				<path
   d="M64.1,133.5l-1.7,5.3h-2.2l5.7-16.8h2.6l5.7,16.8h-2.3l-1.8-5.3H64.1z M69.6,131.8l-1.6-4.8c-0.4-1.1-0.6-2.1-0.9-3.1h0      c-0.2,1-0.5,2-0.8,3l-1.6,4.9H69.6z"
   id="path591" />
				<path
   d="M75.5,137.5l9.3-13.7v-0.1h-8.5v-1.8h11.4v1.3l-9.3,13.6v0.1h9.4v1.8H75.5V137.5z"
   id="path593" />
				<path
   d="M93.2,133.5l-1.7,5.3h-2.2l5.7-16.8h2.6l5.7,16.8H101l-1.8-5.3H93.2z M98.7,131.8l-1.6-4.8c-0.4-1.1-0.6-2.1-0.9-3.1h0      c-0.2,1-0.5,2-0.8,3l-1.6,4.9H98.7z"
   id="path595" />
				<path
   d="M105.8,122.2c1.1-0.2,2.7-0.3,4.2-0.3c2.3,0,3.8,0.4,4.9,1.4c0.8,0.8,1.3,1.9,1.3,3.2c0,2.2-1.4,3.7-3.2,4.3v0.1      c1.3,0.4,2.1,1.6,2.5,3.4c0.5,2.3,1,4,1.3,4.6h-2.2c-0.3-0.5-0.7-1.9-1.1-4c-0.5-2.3-1.4-3.2-3.4-3.3h-2v7.3h-2.2V122.2z       M107.9,129.8h2.2c2.3,0,3.8-1.3,3.8-3.2c0-2.2-1.6-3.1-3.9-3.1c-1,0-1.8,0.1-2.1,0.2V129.8z"
   id="path597" />
				<path
   d="M119.2,122.2c1.3-0.2,2.9-0.3,4.6-0.3c3.1,0,5.3,0.7,6.8,2.1c1.5,1.4,2.4,3.3,2.4,6c0,2.7-0.8,5-2.4,6.5      c-1.6,1.6-4.2,2.4-7.4,2.4c-1.5,0-2.8-0.1-3.9-0.2V122.2z M121.4,137.1c0.5,0.1,1.3,0.1,2.2,0.1c4.6,0,7.2-2.6,7.2-7.1      c0-4-2.2-6.5-6.8-6.5c-1.1,0-2,0.1-2.5,0.2V137.1z"
   id="path599" />
				<path
   d="M150.3,130.2c0,5.8-3.5,8.9-7.8,8.9c-4.4,0-7.6-3.4-7.6-8.5c0-5.3,3.3-8.8,7.8-8.8C147.3,121.7,150.3,125.2,150.3,130.2      z M137.2,130.5c0,3.6,1.9,6.8,5.4,6.8c3.4,0,5.4-3.2,5.4-7c0-3.3-1.8-6.8-5.4-6.8C139,123.4,137.2,126.8,137.2,130.5z"
   id="path601" />
				<path
   d="M155.3,121.9v10c0,3.8,1.7,5.4,3.9,5.4c2.5,0,4.1-1.6,4.1-5.4v-10h2.2v9.8c0,5.2-2.7,7.3-6.4,7.3c-3.4,0-6-2-6-7.2v-9.9      H155.3z"
   id="path603" />
				<path
   d="M169,136.1c1,0.6,2.4,1.1,3.9,1.1c2.2,0,3.5-1.2,3.5-2.9c0-1.6-0.9-2.5-3.2-3.3c-2.7-1-4.4-2.4-4.4-4.8      c0-2.6,2.2-4.6,5.4-4.6c1.7,0,3,0.4,3.7,0.8l-0.6,1.8c-0.5-0.3-1.7-0.8-3.2-0.8c-2.3,0-3.2,1.4-3.2,2.5c0,1.6,1,2.3,3.3,3.2      c2.8,1.1,4.3,2.5,4.3,4.9c0,2.6-1.9,4.8-5.9,4.8c-1.6,0-3.4-0.5-4.3-1.1L169,136.1z"
   id="path605" />
				<path
   d="M30.1,155.9L30.1,155.9l-3.1,1.5l-0.6-2.8l4.3-2h3.1v16.2h-3.7V155.9z"
   id="path607" />
				<path
   d="M45,166.1c1,0.6,2.4,1.1,3.9,1.1c2.2,0,3.5-1.2,3.5-2.9c0-1.6-0.9-2.5-3.2-3.3c-2.7-1-4.4-2.4-4.4-4.8      c0-2.6,2.2-4.6,5.4-4.6c1.7,0,3,0.4,3.7,0.8l-0.6,1.8c-0.5-0.3-1.7-0.8-3.2-0.8c-2.3,0-3.2,1.4-3.2,2.5c0,1.6,1,2.3,3.3,3.2      c2.8,1.1,4.3,2.5,4.3,4.9c0,2.6-1.9,4.8-5.9,4.8c-1.6,0-3.4-0.5-4.3-1.1L45,166.1z"
   id="path609" />
				<path
   d="M57.6,151.9h2.2v15H67v1.8h-9.4V151.9z"
   id="path611" />
				<path
   d="M71.6,151.9v16.8h-2.2v-16.8H71.6z"
   id="path613" />
				<path
   d="M88.2,168c-1,0.4-2.9,0.9-5.2,0.9c-2.5,0-4.6-0.6-6.3-2.2c-1.5-1.4-2.3-3.6-2.3-6.3c0-5,3.5-8.7,9.1-8.7      c1.9,0,3.5,0.4,4.2,0.8l-0.5,1.8c-0.9-0.4-2-0.7-3.7-0.7c-4.1,0-6.8,2.5-6.8,6.8c0,4.3,2.6,6.8,6.5,6.8c1.4,0,2.4-0.2,2.9-0.5      v-5h-3.4v-1.7h5.5V168z"
   id="path615" />
				<path
   d="M93.7,151.9v7h8.1v-7h2.2v16.8h-2.2v-7.9h-8.1v7.9h-2.2v-16.8H93.7z"
   id="path617" />
				<path
   d="M111,153.8h-5.1v-1.8h12.5v1.8h-5.1v15H111V153.8z"
   id="path619" />
				<path
   d="M120.3,151.9h2.2v15h7.2v1.8h-9.4V151.9z"
   id="path621" />
				<path
   d="M133.7,168.8v-7.1l-5.3-9.7h2.5l2.4,4.6c0.6,1.3,1.1,2.3,1.7,3.5h0.1c0.5-1.1,1-2.2,1.7-3.5l2.4-4.6h2.5l-5.6,9.7v7.2      H133.7z"
   id="path623" />
				<path
   d="M151,151.9v7h8.1v-7h2.2v16.8h-2.2v-7.9H151v7.9h-2.2v-16.8H151z"
   id="path625" />
				<path
   d="M167.8,163.5l-1.7,5.3h-2.2l5.7-16.8h2.6l5.7,16.8h-2.3l-1.8-5.3H167.8z M173.3,161.8l-1.6-4.8      c-0.4-1.1-0.6-2.1-0.9-3.1h0c-0.2,1-0.5,2-0.8,3l-1.6,4.9H173.3z"
   id="path627" />
				<path
   d="M179.2,167.5l9.3-13.7v-0.1H180v-1.8h11.4v1.3l-9.3,13.6v0.1h9.4v1.8h-12.3V167.5z"
   id="path629" />
				<path
   d="M196.9,163.5l-1.8,5.3h-2.2l5.7-16.8h2.6l5.7,16.8h-2.3l-1.8-5.3H196.9z M202.5,161.8l-1.6-4.8      c-0.4-1.1-0.6-2.1-0.9-3.1h0c-0.2,1-0.5,2-0.9,3l-1.6,4.9H202.5z"
   id="path631" />
				<path
   d="M209.5,152.2c1.1-0.2,2.7-0.3,4.2-0.3c2.3,0,3.8,0.4,4.9,1.4c0.8,0.8,1.3,1.9,1.3,3.2c0,2.2-1.4,3.7-3.2,4.3v0.1      c1.3,0.4,2.1,1.6,2.5,3.4c0.5,2.3,1,4,1.3,4.6h-2.2c-0.3-0.5-0.7-1.9-1.1-4c-0.5-2.3-1.4-3.2-3.4-3.3h-2v7.3h-2.2V152.2z       M211.7,159.8h2.2c2.3,0,3.8-1.3,3.8-3.2c0-2.2-1.6-3.1-3.9-3.1c-1,0-1.8,0.1-2.1,0.2V159.8z"
   id="path633" />
				<path
   d="M223,152.2c1.3-0.2,2.9-0.3,4.6-0.3c3.1,0,5.3,0.7,6.8,2.1c1.5,1.4,2.4,3.3,2.4,6c0,2.7-0.8,5-2.4,6.5      c-1.6,1.6-4.2,2.4-7.4,2.4c-1.5,0-2.8-0.1-3.9-0.2V152.2z M225.1,167.1c0.5,0.1,1.3,0.1,2.2,0.1c4.6,0,7.2-2.6,7.2-7.1      c0-4-2.2-6.5-6.8-6.5c-1.1,0-2,0.1-2.5,0.2V167.1z"
   id="path635" />
				<path
   d="M254,160.2c0,5.8-3.5,8.9-7.8,8.9c-4.4,0-7.6-3.4-7.6-8.5c0-5.3,3.3-8.8,7.8-8.8C251,151.7,254,155.2,254,160.2z       M240.9,160.5c0,3.6,2,6.8,5.4,6.8c3.4,0,5.4-3.2,5.4-7c0-3.3-1.7-6.8-5.4-6.8C242.7,153.4,240.9,156.8,240.9,160.5z"
   id="path637" />
				<path
   d="M259,151.9v10c0,3.8,1.7,5.4,3.9,5.4c2.5,0,4.1-1.6,4.1-5.4v-10h2.2v9.8c0,5.2-2.7,7.3-6.4,7.3c-3.4,0-6-2-6-7.2v-9.9      H259z"
   id="path639" />
				<path
   d="M272.7,166.1c1,0.6,2.4,1.1,3.9,1.1c2.2,0,3.5-1.2,3.5-2.9c0-1.6-0.9-2.5-3.2-3.3c-2.7-1-4.4-2.4-4.4-4.8      c0-2.6,2.2-4.6,5.4-4.6c1.7,0,3,0.4,3.7,0.8l-0.6,1.8c-0.5-0.3-1.7-0.8-3.2-0.8c-2.3,0-3.2,1.4-3.2,2.5c0,1.6,1,2.3,3.3,3.2      c2.8,1.1,4.3,2.5,4.3,4.9c0,2.6-1.9,4.8-5.9,4.8c-1.6,0-3.4-0.5-4.3-1.1L272.7,166.1z"
   id="path641" />
				<path
   d="M37.3,190.6c0,5-2,8.5-6.2,8.5c-4.2,0-6-3.8-6.1-8.4c0-4.7,2-8.4,6.2-8.4C35.6,182.3,37.3,186.1,37.3,190.6z       M28.8,190.7c0,3.7,0.9,5.5,2.3,5.5c1.5,0,2.3-1.8,2.3-5.5c0-3.6-0.8-5.5-2.3-5.5C29.8,185.1,28.8,186.9,28.8,190.7z"
   id="path643" />
				<path
   d="M45,198.8v-16.8h2.4l5.4,8.5c1.2,2,2.2,3.7,3,5.5l0,0c-0.2-2.2-0.2-4.3-0.2-6.9v-7h2v16.8h-2.2l-5.3-8.5      c-1.2-1.9-2.3-3.8-3.1-5.6l-0.1,0c0.1,2.1,0.2,4.1,0.2,6.9v7.2H45z"
   id="path645" />
				<path
   d="M75.9,190.2c0,5.8-3.5,8.9-7.8,8.9c-4.4,0-7.6-3.4-7.6-8.5c0-5.3,3.3-8.8,7.8-8.8C72.9,181.7,75.9,185.2,75.9,190.2z       M62.8,190.5c0,3.6,2,6.8,5.4,6.8c3.4,0,5.4-3.2,5.4-7c0-3.3-1.7-6.8-5.4-6.8C64.6,183.4,62.8,186.8,62.8,190.5z"
   id="path647" />
				<path
   d="M78.7,182.2c1.1-0.2,2.7-0.3,4.2-0.3c2.3,0,3.8,0.4,4.9,1.4c0.8,0.8,1.3,1.9,1.3,3.2c0,2.2-1.4,3.7-3.2,4.3v0.1      c1.3,0.4,2.1,1.6,2.5,3.4c0.5,2.3,0.9,4,1.3,4.6h-2.2c-0.3-0.5-0.6-1.9-1.1-4c-0.5-2.3-1.4-3.2-3.4-3.3h-2v7.3h-2.2V182.2z       M80.9,189.8h2.2c2.3,0,3.8-1.3,3.8-3.2c0-2.2-1.6-3.1-3.9-3.1c-1,0-1.8,0.1-2.1,0.2V189.8z"
   id="path649" />
				<path
   d="M106.4,191.4c-0.1-2.3-0.3-5.2-0.2-7.3H106c-0.6,2-1.3,4.1-2.1,6.4l-3,8.2h-1.6l-2.7-8c-0.8-2.4-1.5-4.5-1.9-6.5h0      c0,2.1-0.2,4.9-0.3,7.4l-0.5,7.2h-2.1l1.2-16.8h2.8l2.9,8.1c0.7,2.1,1.3,3.9,1.7,5.7h0.1c0.4-1.7,1-3.5,1.8-5.7l3-8.1h2.8      l1,16.8h-2.1L106.4,191.4z"
   id="path651" />
				<path
   d="M114.7,193.5l-1.8,5.3h-2.2l5.7-16.8h2.6l5.7,16.8h-2.3l-1.8-5.3H114.7z M120.3,191.8l-1.6-4.8      c-0.4-1.1-0.6-2.1-0.9-3.1h0c-0.2,1-0.5,2-0.9,3l-1.6,4.9H120.3z"
   id="path653" />
				<path
   d="M127.3,181.9h2.2v15h7.2v1.8h-9.4V181.9z"
   id="path655" />
				<path
   d="M158.6,191.4c-0.1-2.3-0.3-5.2-0.2-7.3h-0.1c-0.6,2-1.3,4.1-2.1,6.4l-3,8.2h-1.6l-2.7-8c-0.8-2.4-1.5-4.5-1.9-6.5h0      c0,2.1-0.2,4.9-0.3,7.4l-0.5,7.2H144l1.2-16.8h2.8l2.9,8.1c0.7,2.1,1.3,3.9,1.7,5.7h0.1c0.4-1.7,1-3.5,1.8-5.7l3-8.1h2.8l1,16.8      H159L158.6,191.4z"
   id="path657" />
				<path
   d="M167,193.5l-1.8,5.3H163l5.7-16.8h2.6l5.7,16.8h-2.3l-1.8-5.3H167z M172.5,191.8l-1.6-4.8c-0.4-1.1-0.6-2.1-0.9-3.1h0      c-0.2,1-0.5,2-0.9,3l-1.6,4.9H172.5z"
   id="path659" />
				<path
   d="M180.8,183.8h-5.1v-1.8h12.5v1.8H183v15h-2.2V183.8z"
   id="path661" />
				<path
   d="M198.8,190.9h-6.5v6.1h7.3v1.8h-9.5v-16.8h9.1v1.8h-6.9v5.3h6.5V190.9z"
   id="path663" />
				<path
   d="M202.4,182.2c1.1-0.2,2.7-0.3,4.2-0.3c2.3,0,3.8,0.4,4.9,1.4c0.8,0.8,1.3,1.9,1.3,3.2c0,2.2-1.4,3.7-3.2,4.3v0.1      c1.3,0.4,2.1,1.6,2.5,3.4c0.5,2.3,0.9,4,1.3,4.6h-2.2c-0.3-0.5-0.6-1.9-1.1-4c-0.5-2.3-1.4-3.2-3.4-3.3h-2v7.3h-2.2V182.2z       M204.5,189.8h2.2c2.3,0,3.8-1.3,3.8-3.2c0-2.2-1.6-3.1-3.9-3.1c-1,0-1.8,0.1-2.1,0.2V189.8z"
   id="path665" />
				<path
   d="M218,181.9v16.8h-2.2v-16.8H218z"
   id="path667" />
				<path
   d="M224.5,193.5l-1.7,5.3h-2.2l5.7-16.8h2.6l5.7,16.8h-2.3l-1.8-5.3H224.5z M230,191.8l-1.6-4.8c-0.4-1.1-0.6-2.1-0.9-3.1      h0c-0.2,1-0.5,2-0.8,3l-1.6,4.9H230z"
   id="path669" />
				<path
   d="M237.1,181.9h2.2v15h7.2v1.8h-9.4V181.9z"
   id="path671" />
			</g>
		</g>
		<g
   id="g865">
			<g
   id="g705">
				<path
   d="M26,474.6c1,0.5,2.6,1,4.2,1c1.8,0,2.7-0.7,2.7-1.8c0-1-0.8-1.6-2.8-2.4c-2.8-1-4.6-2.5-4.6-5c0-2.9,2.4-5.1,6.4-5.1      c1.9,0,3.3,0.4,4.3,0.8l-0.8,3.1c-0.7-0.3-1.9-0.8-3.5-0.8c-1.6,0-2.4,0.7-2.4,1.6c0,1.1,1,1.5,3.1,2.4c3,1.1,4.4,2.6,4.4,5      c0,2.8-2.2,5.2-6.8,5.2c-1.9,0-3.8-0.5-4.8-1L26,474.6z"
   id="path677" />
				<path
   d="M39.4,461.9c1.2-0.2,2.8-0.3,5.1-0.3c2.3,0,4,0.5,5.1,1.3c1.1,0.8,1.8,2.2,1.8,3.9c0,1.6-0.5,3-1.5,4      c-1.3,1.2-3.2,1.8-5.5,1.8c-0.5,0-0.9,0-1.3-0.1v6h-3.8V461.9z M43.1,469.5c0.3,0.1,0.7,0.1,1.3,0.1c2,0,3.3-1,3.3-2.7      c0-1.5-1.1-2.5-3-2.5c-0.8,0-1.3,0.1-1.6,0.2V469.5z"
   id="path679" />
				<path
   d="M63.9,471.4h-6.2v4h6.9v3.1H53.9v-16.8h10.4v3.1h-6.6v3.5h6.2V471.4z"
   id="path681" />
				<path
   d="M79.6,478c-0.7,0.3-2.3,0.7-4.3,0.7c-5.8,0-8.8-3.6-8.8-8.4c0-5.7,4.1-8.9,9.2-8.9c2,0,3.5,0.4,4.1,0.8l-0.8,3      c-0.8-0.3-1.8-0.6-3.2-0.6c-3,0-5.4,1.8-5.4,5.6c0,3.4,2,5.5,5.4,5.5c1.2,0,2.4-0.2,3.2-0.5L79.6,478z"
   id="path683" />
				<path
   d="M85.9,461.7v16.8h-3.8v-16.8H85.9z"
   id="path685" />
				<path
   d="M89.2,461.7h10.3v3.1h-6.5v3.8h6v3.1h-6v6.8h-3.8V461.7z"
   id="path687" />
				<path
   d="M106.2,461.7v16.8h-3.8v-16.8H106.2z"
   id="path689" />
				<path
   d="M121.9,478c-0.7,0.3-2.3,0.7-4.3,0.7c-5.8,0-8.8-3.6-8.8-8.4c0-5.7,4.1-8.9,9.2-8.9c2,0,3.5,0.4,4.1,0.8l-0.8,3      c-0.8-0.3-1.8-0.6-3.2-0.6c-3,0-5.4,1.8-5.4,5.6c0,3.4,2,5.5,5.4,5.5c1.2,0,2.4-0.2,3.2-0.5L121.9,478z"
   id="path691" />
				<path
   d="M133.3,461.7v6.5h6.3v-6.5h3.8v16.8h-3.8v-7h-6.3v7h-3.8v-16.8H133.3z"
   id="path693" />
				<path
   d="M150.6,474.2l-1.2,4.3h-3.9l5.1-16.8h5l5.2,16.8h-4.1l-1.3-4.3H150.6z M154.9,471.3l-1-3.6c-0.3-1-0.6-2.2-0.8-3.2h0      c-0.2,1-0.5,2.3-0.8,3.2l-1,3.6H154.9z"
   id="path695" />
				<path
   d="M162.2,476.5l8-11.5v-0.1h-7.3v-3.1h12.2v2.2l-7.8,11.4v0.1h8v3.1h-13.1V476.5z"
   id="path697" />
				<path
   d="M181.8,474.2l-1.2,4.3h-3.9l5.1-16.8h5l5.2,16.8h-4.1l-1.3-4.3H181.8z M186.1,471.3l-1-3.6c-0.3-1-0.6-2.2-0.8-3.2h0      c-0.2,1-0.5,2.3-0.8,3.2l-1,3.6H186.1z"
   id="path699" />
				<path
   d="M194.3,461.9c1.2-0.2,3-0.3,5.1-0.3c2.5,0,4.2,0.4,5.4,1.3c1,0.8,1.5,2,1.5,3.5c0,2.1-1.5,3.6-3,4.1v0.1      c1.2,0.5,1.8,1.6,2.2,3.1c0.5,1.9,1,4.1,1.4,4.7h-3.9c-0.3-0.5-0.7-1.8-1.2-3.9c-0.5-2.1-1.2-2.7-2.7-2.7H198v6.6h-3.8V461.9z       M198,469.1h1.5c1.9,0,3-0.9,3-2.4c0-1.5-1-2.3-2.8-2.3c-0.9,0-1.4,0.1-1.7,0.1V469.1z"
   id="path701" />
				<path
   d="M209.1,461.9c1.4-0.2,3.2-0.3,5.1-0.3c3.2,0,5.3,0.6,6.9,1.8c1.8,1.3,2.8,3.4,2.8,6.3c0,3.2-1.2,5.4-2.8,6.8      c-1.8,1.5-4.5,2.2-7.8,2.2c-2,0-3.4-0.1-4.3-0.2V461.9z M212.9,475.6c0.3,0.1,0.8,0.1,1.3,0.1c3.4,0,5.7-1.9,5.7-5.9      c0-3.5-2-5.3-5.3-5.3c-0.8,0-1.4,0.1-1.7,0.2V475.6z"
   id="path703" />
			</g>
			<g
   id="g863">
				<g
   id="g803">
					<path
   d="M111.2,505.5c0,5.8-3.5,8.9-7.8,8.9c-4.4,0-7.6-3.4-7.6-8.5c0-5.3,3.3-8.8,7.8-8.8C108.2,497,111.2,500.5,111.2,505.5z        M98.1,505.8c0,3.6,2,6.8,5.4,6.8c3.4,0,5.4-3.2,5.4-7c0-3.3-1.7-6.8-5.4-6.8C99.9,498.8,98.1,502.1,98.1,505.8z"
   id="path707" />
					<path
   d="M122.6,514.1l-2.1-3.7c-0.9-1.4-1.4-2.3-1.9-3.3h0c-0.5,1-1,1.9-1.8,3.3l-2,3.7h-2.5l5.1-8.5l-4.9-8.3h2.5l2.2,3.9       c0.6,1.1,1.1,1.9,1.5,2.8h0.1c0.5-1,0.9-1.8,1.5-2.8l2.3-3.9h2.5l-5.1,8.2l5.2,8.6H122.6z"
   id="path709" />
					<path
   d="M129.8,497.3v16.8h-2.2v-16.8H129.8z"
   id="path711" />
					<path
   d="M133.6,497.5c1.3-0.2,2.9-0.3,4.6-0.3c3.1,0,5.3,0.7,6.8,2.1c1.5,1.4,2.4,3.3,2.4,6c0,2.8-0.8,5-2.4,6.5       c-1.6,1.6-4.2,2.4-7.4,2.4c-1.5,0-2.8-0.1-3.9-0.2V497.5z M135.8,512.4c0.5,0.1,1.3,0.1,2.2,0.1c4.6,0,7.2-2.6,7.2-7.1       c0-4-2.2-6.5-6.8-6.5c-1.1,0-2,0.1-2.5,0.2V512.4z"
   id="path713" />
					<path
   d="M152.4,497.3v16.8h-2.2v-16.8H152.4z"
   id="path715" />
					<path
   d="M155.1,512.9l9.3-13.7v-0.1h-8.5v-1.8h11.4v1.3l-9.3,13.6v0.1h9.4v1.8h-12.3V512.9z"
   id="path717" />
					<path
   d="M178.8,506.2h-6.5v6.1h7.3v1.8h-9.5v-16.8h9.1v1.8h-6.9v5.3h6.5V506.2z"
   id="path719" />
					<path
   d="M182.4,497.5c1.1-0.2,2.7-0.3,4.2-0.3c2.3,0,3.8,0.4,4.9,1.4c0.9,0.7,1.3,1.9,1.3,3.2c0,2.2-1.4,3.7-3.2,4.3v0.1       c1.3,0.5,2.1,1.7,2.5,3.4c0.5,2.3,1,4,1.3,4.6h-2.2c-0.3-0.5-0.7-1.9-1.1-4c-0.5-2.3-1.4-3.2-3.4-3.3h-2v7.3h-2.2V497.5z        M184.5,505.2h2.2c2.3,0,3.8-1.3,3.8-3.2c0-2.2-1.6-3.1-3.9-3.1c-1,0-1.8,0.1-2.1,0.2V505.2z"
   id="path721" />
					<path
   d="M99.5,538.8l-1.8,5.3h-2.2l5.7-16.8h2.6l5.7,16.8h-2.3l-1.8-5.3H99.5z M105.1,537.1l-1.6-4.8c-0.4-1.1-0.6-2.1-0.9-3.1       h0c-0.2,1-0.5,2-0.9,3l-1.6,4.9H105.1z"
   id="path723" />
					<path
   d="M123.5,543.6c-0.8,0.4-2.4,0.8-4.4,0.8c-4.7,0-8.3-3-8.3-8.5c0-5.3,3.6-8.8,8.8-8.8c2.1,0,3.4,0.5,4,0.8l-0.5,1.8       c-0.8-0.4-2-0.7-3.4-0.7c-3.9,0-6.6,2.5-6.6,6.9c0,4.1,2.4,6.8,6.5,6.8c1.3,0,2.7-0.3,3.5-0.7L123.5,543.6z"
   id="path725" />
					<path
   d="M128.4,527.3v16.8h-2.2v-16.8H128.4z"
   id="path727" />
					<path
   d="M132.2,527.5c1.3-0.2,2.9-0.3,4.6-0.3c3.1,0,5.3,0.7,6.8,2.1c1.5,1.4,2.4,3.3,2.4,6c0,2.8-0.8,5-2.4,6.5       c-1.6,1.6-4.2,2.4-7.4,2.4c-1.5,0-2.8-0.1-3.9-0.2V527.5z M134.4,542.4c0.5,0.1,1.3,0.1,2.2,0.1c4.6,0,7.2-2.6,7.2-7.1       c0-4-2.2-6.5-6.8-6.5c-1.1,0-2,0.1-2.5,0.2V542.4z"
   id="path729" />
					<path
   d="M99.5,568.8l-1.8,5.3h-2.2l5.7-16.8h2.6l5.7,16.8h-2.3l-1.8-5.3H99.5z M105.1,567.1l-1.6-4.8c-0.4-1.1-0.6-2.1-0.9-3.1       h0c-0.2,1-0.5,2-0.9,3l-1.6,4.9H105.1z"
   id="path731" />
					<path
   d="M112.1,557.3h2.2v15h7.2v1.8h-9.4V557.3z"
   id="path733" />
					<path
   d="M123.9,557.3h2.2v8.1h0.1c0.5-0.7,0.9-1.2,1.3-1.8l5.1-6.3h2.7l-6.1,7.1l6.6,9.7h-2.6l-5.5-8.3l-1.6,1.8v6.4h-2.2       V557.3z"
   id="path735" />
					<path
   d="M140.4,568.8l-1.8,5.3h-2.2l5.7-16.8h2.6l5.7,16.8h-2.3l-1.8-5.3H140.4z M146,567.1l-1.6-4.8c-0.4-1.1-0.6-2.1-0.9-3.1       h0c-0.2,1-0.5,2-0.9,3l-1.6,4.9H146z"
   id="path737" />
					<path
   d="M153,557.3h2.2v15h7.2v1.8H153V557.3z"
   id="path739" />
					<path
   d="M167,557.3v16.8h-2.2v-16.8H167z"
   id="path741" />
					<path
   d="M108.6,603.6c-0.8,0.4-2.4,0.8-4.4,0.8c-4.7,0-8.3-3-8.3-8.5c0-5.3,3.6-8.8,8.8-8.8c2.1,0,3.4,0.5,4,0.8l-0.5,1.8       c-0.8-0.4-2-0.7-3.4-0.7c-3.9,0-6.6,2.5-6.6,6.9c0,4.1,2.4,6.8,6.5,6.8c1.3,0,2.7-0.3,3.5-0.7L108.6,603.6z"
   id="path743" />
					<path
   d="M125.2,595.5c0,5.8-3.5,8.9-7.8,8.9c-4.4,0-7.6-3.4-7.6-8.5c0-5.3,3.3-8.8,7.8-8.8C122.2,587,125.2,590.5,125.2,595.5z        M112.1,595.8c0,3.6,2,6.8,5.4,6.8c3.4,0,5.4-3.2,5.4-7c0-3.3-1.7-6.8-5.4-6.8C113.9,588.8,112.1,592.1,112.1,595.8z"
   id="path745" />
					<path
   d="M128,587.5c1.1-0.2,2.7-0.3,4.2-0.3c2.3,0,3.8,0.4,4.9,1.4c0.9,0.7,1.3,1.9,1.3,3.2c0,2.2-1.4,3.7-3.2,4.3v0.1       c1.3,0.5,2.1,1.7,2.5,3.4c0.5,2.3,1,4,1.3,4.6h-2.2c-0.3-0.5-0.7-1.9-1.1-4c-0.5-2.3-1.4-3.2-3.4-3.3h-2v7.3H128V587.5z        M130.2,595.2h2.2c2.3,0,3.8-1.3,3.8-3.2c0-2.2-1.6-3.1-3.9-3.1c-1,0-1.8,0.1-2.1,0.2V595.2z"
   id="path747" />
					<path
   d="M141.5,587.5c1.1-0.2,2.7-0.3,4.2-0.3c2.3,0,3.8,0.4,4.9,1.4c0.8,0.7,1.3,1.9,1.3,3.2c0,2.2-1.4,3.7-3.2,4.3v0.1       c1.3,0.5,2.1,1.7,2.5,3.4c0.5,2.3,0.9,4,1.3,4.6h-2.2c-0.3-0.5-0.6-1.9-1.1-4c-0.5-2.3-1.4-3.2-3.4-3.3h-2v7.3h-2.2V587.5z        M143.6,595.2h2.2c2.3,0,3.8-1.3,3.8-3.2c0-2.2-1.6-3.1-3.9-3.1c-1,0-1.8,0.1-2.1,0.2V595.2z"
   id="path749" />
					<path
   d="M169.4,595.5c0,5.8-3.5,8.9-7.8,8.9c-4.4,0-7.6-3.4-7.6-8.5c0-5.3,3.3-8.8,7.8-8.8C166.4,587,169.4,590.5,169.4,595.5z        M156.3,595.8c0,3.6,1.9,6.8,5.4,6.8c3.4,0,5.4-3.2,5.4-7c0-3.3-1.8-6.8-5.4-6.8C158.1,588.8,156.3,592.1,156.3,595.8z"
   id="path751" />
					<path
   d="M171.9,601.5c1,0.6,2.4,1.1,3.9,1.1c2.2,0,3.5-1.2,3.5-2.9c0-1.6-0.9-2.5-3.2-3.3c-2.7-1-4.4-2.4-4.4-4.8       c0-2.6,2.2-4.6,5.4-4.6c1.7,0,3,0.4,3.7,0.8l-0.6,1.8c-0.5-0.3-1.7-0.8-3.2-0.8c-2.3,0-3.2,1.4-3.2,2.5c0,1.6,1,2.3,3.3,3.2       c2.8,1.1,4.3,2.5,4.3,4.9c0,2.6-1.9,4.8-5.9,4.8c-1.6,0-3.4-0.5-4.3-1.1L171.9,601.5z"
   id="path753" />
					<path
   d="M186.7,587.3v16.8h-2.2v-16.8H186.7z"
   id="path755" />
					<path
   d="M194.2,604.1l-5.5-16.8h2.3l2.6,8.3c0.7,2.3,1.3,4.3,1.8,6.3h0c0.5-2,1.2-4.1,1.9-6.3l2.8-8.3h2.3l-6,16.8H194.2z"
   id="path757" />
					<path
   d="M213.2,596.2h-6.5v6.1h7.3v1.8h-9.5v-16.8h9.1v1.8h-6.9v5.3h6.5V596.2z"
   id="path759" />
					<path
   d="M96.8,617.5c1.1-0.2,2.7-0.3,4.2-0.3c2.3,0,3.8,0.4,4.9,1.4c0.8,0.7,1.3,1.9,1.3,3.2c0,2.2-1.4,3.7-3.2,4.3v0.1       c1.3,0.5,2.1,1.7,2.5,3.4c0.5,2.3,0.9,4,1.3,4.6h-2.2c-0.3-0.5-0.6-1.9-1.1-4c-0.5-2.3-1.4-3.2-3.4-3.3h-2v7.3h-2.2V617.5z        M99,625.2h2.2c2.3,0,3.8-1.3,3.8-3.2c0-2.2-1.6-3.1-3.9-3.1c-1,0-1.8,0.1-2.1,0.2V625.2z"
   id="path761" />
					<path
   d="M113.1,628.8l-1.7,5.3h-2.2l5.7-16.8h2.6l5.7,16.8h-2.3l-1.8-5.3H113.1z M118.6,627.1l-1.6-4.8       c-0.4-1.1-0.6-2.1-0.9-3.1h0c-0.2,1-0.5,2-0.8,3l-1.6,4.9H118.6z"
   id="path763" />
					<path
   d="M125.7,617.5c1.3-0.2,2.9-0.3,4.6-0.3c3.1,0,5.3,0.7,6.8,2.1c1.5,1.4,2.4,3.3,2.4,6c0,2.8-0.8,5-2.4,6.5       c-1.6,1.6-4.2,2.4-7.4,2.4c-1.5,0-2.8-0.1-3.9-0.2V617.5z M127.9,632.4c0.5,0.1,1.3,0.1,2.2,0.1c4.6,0,7.2-2.6,7.2-7.1       c0-4-2.2-6.5-6.8-6.5c-1.1,0-2,0.1-2.5,0.2V632.4z"
   id="path765" />
					<path
   d="M144.5,617.3v16.8h-2.2v-16.8H144.5z"
   id="path767" />
					<path
   d="M162.7,625.5c0,5.8-3.5,8.9-7.8,8.9c-4.4,0-7.6-3.4-7.6-8.5c0-5.3,3.3-8.8,7.8-8.8C159.7,617,162.7,620.5,162.7,625.5z        M149.6,625.8c0,3.6,2,6.8,5.4,6.8c3.4,0,5.4-3.2,5.4-7c0-3.3-1.7-6.8-5.4-6.8C151.4,618.8,149.6,622.1,149.6,625.8z"
   id="path769" />
					<path
   d="M167.9,628.8l-1.8,5.3h-2.2l5.7-16.8h2.6l5.7,16.8h-2.3l-1.8-5.3H167.9z M173.4,627.1l-1.6-4.8       c-0.4-1.1-0.6-2.1-0.9-3.1h0c-0.2,1-0.5,2-0.9,3l-1.6,4.9H173.4z"
   id="path771" />
					<path
   d="M191.9,633.6c-0.8,0.4-2.4,0.8-4.4,0.8c-4.7,0-8.3-3-8.3-8.5c0-5.3,3.6-8.8,8.8-8.8c2.1,0,3.4,0.5,4,0.8l-0.5,1.8       c-0.8-0.4-2-0.7-3.4-0.7c-3.9,0-6.6,2.5-6.6,6.9c0,4.1,2.4,6.8,6.5,6.8c1.3,0,2.7-0.3,3.5-0.7L191.9,633.6z"
   id="path773" />
					<path
   d="M198.5,619.1h-5.1v-1.8h12.5v1.8h-5.1v15h-2.2V619.1z"
   id="path775" />
					<path
   d="M209.9,617.3v16.8h-2.2v-16.8H209.9z"
   id="path777" />
					<path
   d="M217.4,634.1l-5.5-16.8h2.3l2.6,8.3c0.7,2.3,1.3,4.3,1.8,6.3h0c0.5-2,1.2-4.1,1.9-6.3l2.8-8.3h2.3l-6,16.8H217.4z"
   id="path779" />
					<path
   d="M236.4,626.2h-6.5v6.1h7.3v1.8h-9.5v-16.8h9.1v1.8h-6.9v5.3h6.5V626.2z"
   id="path781" />
					<path
   d="M99,647.3v10c0,3.8,1.7,5.4,3.9,5.4c2.5,0,4.1-1.6,4.1-5.4v-10h2.2v9.8c0,5.2-2.7,7.3-6.4,7.3c-3.4,0-6-2-6-7.2v-9.9       H99z"
   id="path783" />
					<path
   d="M112.7,661.5c1,0.6,2.4,1.1,3.9,1.1c2.2,0,3.5-1.2,3.5-2.9c0-1.6-0.9-2.5-3.2-3.3c-2.8-1-4.4-2.4-4.4-4.8       c0-2.6,2.2-4.6,5.4-4.6c1.7,0,3,0.4,3.7,0.8l-0.6,1.8c-0.5-0.3-1.7-0.8-3.2-0.8c-2.3,0-3.2,1.4-3.2,2.5c0,1.6,1,2.3,3.3,3.2       c2.8,1.1,4.3,2.5,4.3,4.9c0,2.6-1.9,4.8-5.9,4.8c-1.6,0-3.4-0.5-4.3-1.1L112.7,661.5z"
   id="path785" />
					<path
   d="M134,656.2h-6.5v6.1h7.3v1.8h-9.5v-16.8h9.1v1.8h-6.9v5.3h6.5V656.2z"
   id="path787" />
					<path
   d="M142.9,664.1v-16.8h2.4l5.4,8.5c1.2,2,2.2,3.7,3,5.5l0,0c-0.2-2.2-0.2-4.3-0.2-6.9v-7h2v16.8h-2.2l-5.3-8.5       c-1.2-1.9-2.3-3.8-3.1-5.6l-0.1,0c0.1,2.1,0.2,4.1,0.2,6.9v7.2H142.9z"
   id="path789" />
					<path
   d="M173.8,655.5c0,5.8-3.5,8.9-7.8,8.9c-4.4,0-7.6-3.4-7.6-8.5c0-5.3,3.3-8.8,7.8-8.8C170.8,647,173.8,650.5,173.8,655.5z        M160.7,655.8c0,3.6,2,6.8,5.4,6.8c3.4,0,5.4-3.2,5.4-7c0-3.3-1.7-6.8-5.4-6.8C162.5,648.8,160.7,652.1,160.7,655.8z"
   id="path791" />
					<path
   d="M183.7,664.1l-4.3-16.8h2.3l2,8.5c0.5,2.1,0.9,4.2,1.2,5.8h0.1c0.3-1.7,0.8-3.7,1.4-5.8l2.2-8.5h2.3l2,8.5       c0.5,2,0.9,4,1.2,5.8h0.1c0.3-1.8,0.8-3.7,1.3-5.8l2.2-8.5h2.2l-4.8,16.8H193l-2.1-8.8c-0.5-2.1-0.9-3.8-1.1-5.5h0       c-0.3,1.7-0.7,3.3-1.3,5.5l-2.4,8.8H183.7z"
   id="path793" />
					<path
   d="M203.4,658.8l-1.8,5.3h-2.2l5.7-16.8h2.6l5.7,16.8h-2.3l-1.8-5.3H203.4z M209,657.1l-1.6-4.8c-0.4-1.1-0.6-2.1-0.9-3.1       h0c-0.2,1-0.5,2-0.9,3l-1.6,4.9H209z"
   id="path795" />
					<path
   d="M217.3,649.1h-5.1v-1.8h12.5v1.8h-5.1v15h-2.2V649.1z"
   id="path797" />
					<path
   d="M235.2,656.2h-6.5v6.1h7.3v1.8h-9.5v-16.8h9.1v1.8h-6.9v5.3h6.5V656.2z"
   id="path799" />
					<path
   d="M238.8,647.5c1.1-0.2,2.7-0.3,4.2-0.3c2.3,0,3.8,0.4,4.9,1.4c0.8,0.7,1.3,1.9,1.3,3.2c0,2.2-1.4,3.7-3.2,4.3v0.1       c1.3,0.5,2.1,1.7,2.5,3.4c0.5,2.3,0.9,4,1.3,4.6h-2.2c-0.3-0.5-0.6-1.9-1.1-4c-0.5-2.3-1.4-3.2-3.4-3.3h-2v7.3h-2.2V647.5z        M241,655.2h2.2c2.3,0,3.8-1.3,3.8-3.2c0-2.2-1.6-3.1-3.9-3.1c-1,0-1.8,0.1-2.1,0.2V655.2z"
   id="path801" />
				</g>
				<g
   id="g861">
					<g
   id="g821">
						<g
   id="g807">
							<path
   class="st2"
   d="M58.8,626.7c0.4,0.6,0.5,1.3,0.5,2h10c0-2.4-0.6-4.8-1.9-7c-1.3-2.2-3.1-3.9-5.1-5.1l-5,8.6         C58,625.6,58.5,626.1,58.8,626.7"
   id="path805" />
						</g>
						<g
   id="g811">
							<path
   class="st2"
   d="M53.3,625.3C53.4,625.3,53.4,625.3,53.3,625.3l-5-8.7c0,0,0,0,0,0c-2.1,1.2-3.8,3-5,4.9l-0.2,0.4         c-1.2,2.1-1.8,4.4-1.8,6.8l10,0C51.3,627.3,52.1,626,53.3,625.3"
   id="path809" />
						</g>
						<g
   id="g815">
							<path
   class="st2"
   d="M62.4,640.9l-5-8.6c0,0,0,0,0,0c-1.3,0.7-2.8,0.7-4,0l-5,8.6c2.1,1.2,4.4,1.8,6.8,1.9h0.4         C57.9,642.7,60.2,642.1,62.4,640.9C62.4,640.9,62.4,640.9,62.4,640.9"
   id="path813" />
						</g>
						<g
   id="g819">
							<path
   class="st2"
   d="M56.8,631.2c-1.3,0.8-3.1,0.3-3.8-1c-0.8-1.3-0.3-3.1,1-3.8c1.3-0.8,3.1-0.3,3.8,1         C58.6,628.7,58.1,630.4,56.8,631.2"
   id="path817" />
						</g>
					</g>
					<g
   id="g825">
						<rect
   x="42.3"
   y="655.8"
   class="st19"
   width="27.9"
   height="3.7"
   id="rect823" />
					</g>
					<g
   id="g859">
						<g
   id="g857">
							<path
   d="M48.2,508.1c0,5.5-3.3,8.9-8.3,8.9c-5,0-7.9-3.8-7.9-8.6c0-5,3.2-8.8,8.2-8.8C45.4,499.6,48.2,503.4,48.2,508.1z          M36.1,508.3c0,3.3,1.5,5.6,4.1,5.6c2.6,0,4-2.5,4-5.7c0-3-1.4-5.6-4.1-5.6C37.6,502.6,36.1,505,36.1,508.3z"
   id="path827" />
							<path
   d="M58.8,516.7l-1.5-3c-0.6-1.2-1-2-1.5-3h0c-0.4,1-0.8,1.8-1.3,3l-1.4,3h-4.3l4.9-8.5l-4.7-8.3h4.4l1.5,3.1         c0.5,1,0.9,1.8,1.3,2.8h0c0.4-1.1,0.7-1.8,1.1-2.8l1.4-3.1h4.3l-4.7,8.2l5,8.6H58.8z"
   id="path829" />
							<path
   d="M69.4,516.7v-6.9l-5.3-9.9h4.3l1.7,4c0.5,1.2,0.9,2.1,1.3,3.2h0c0.4-1,0.8-2,1.3-3.2l1.7-4h4.3l-5.5,9.8v7H69.4z"
   id="path831" />
							<path
   d="M33,542.4l-1.2,4.3h-3.9l5.1-16.8h5l5.2,16.8h-4.1l-1.3-4.3H33z M37.3,539.5l-1-3.6c-0.3-1-0.6-2.2-0.8-3.2h-0.1         c-0.2,1-0.5,2.3-0.8,3.2l-1,3.6H37.3z"
   id="path833" />
							<path
   d="M57.3,546.2c-0.7,0.3-2.3,0.7-4.3,0.7c-5.8,0-8.8-3.6-8.8-8.4c0-5.7,4.1-8.9,9.2-8.9c2,0,3.5,0.4,4.1,0.8l-0.8,3         c-0.8-0.3-1.8-0.6-3.2-0.6c-3,0-5.4,1.8-5.4,5.6c0,3.4,2,5.5,5.4,5.5c1.2,0,2.4-0.2,3.2-0.5L57.3,546.2z"
   id="path835" />
							<path
   d="M63.6,529.8v16.8h-3.8v-16.8H63.6z"
   id="path837" />
							<path
   d="M66.9,530.1c1.4-0.2,3.2-0.3,5.1-0.3c3.2,0,5.3,0.6,6.9,1.8c1.8,1.3,2.8,3.4,2.8,6.3c0,3.2-1.2,5.4-2.8,6.8         c-1.8,1.5-4.5,2.2-7.8,2.2c-2,0-3.4-0.1-4.3-0.2V530.1z M70.7,543.8c0.3,0.1,0.8,0.1,1.3,0.1c3.4,0,5.7-1.9,5.7-5.9         c0-3.5-2-5.3-5.3-5.3c-0.8,0-1.4,0.1-1.7,0.2V543.8z"
   id="path839" />
							<path
   d="M38.4,572.4l-1.2,4.3h-3.9l5.1-16.8h5l5.2,16.8h-4.1l-1.3-4.3H38.4z M42.6,569.5l-1-3.6c-0.3-1-0.6-2.2-0.8-3.2h0         c-0.2,1-0.5,2.3-0.8,3.2l-1,3.6H42.6z"
   id="path841" />
							<path
   d="M50.8,559.8h3.8v13.6h6.7v3.2H50.8V559.8z"
   id="path843" />
							<path
   d="M63.6,559.8h3.8v7.4h0.1c0.4-0.7,0.8-1.2,1.2-1.8l3.8-5.6h4.7l-5.6,7.2l5.9,9.7H73l-4.1-7.3l-1.4,1.8v5.5h-3.8V559.8         z"
   id="path845" />
							<path
   d="M38.2,606.2c-0.7,0.3-2.3,0.7-4.3,0.7c-5.8,0-8.8-3.6-8.8-8.4c0-5.7,4.1-8.9,9.2-8.9c2,0,3.5,0.4,4.1,0.8l-0.8,3         c-0.8-0.3-1.8-0.6-3.2-0.6c-3,0-5.4,1.8-5.4,5.6c0,3.4,2,5.5,5.4,5.5c1.1,0,2.4-0.2,3.2-0.5L38.2,606.2z"
   id="path847" />
							<path
   d="M55.4,598.1c0,5.5-3.3,8.9-8.3,8.9c-5,0-7.9-3.8-7.9-8.6c0-5,3.2-8.8,8.2-8.8C52.6,589.6,55.4,593.4,55.4,598.1z          M43.2,598.3c0,3.3,1.5,5.6,4.1,5.6c2.6,0,4-2.5,4-5.7c0-3-1.4-5.6-4.1-5.6C44.7,592.6,43.2,595,43.2,598.3z"
   id="path849" />
							<path
   d="M57.9,590.1c1.2-0.2,3-0.3,5.1-0.3c2.5,0,4.2,0.4,5.4,1.3c1,0.8,1.5,2,1.5,3.5c0,2.1-1.5,3.6-3,4.1v0.1         c1.2,0.5,1.8,1.6,2.2,3.1c0.5,1.9,1,4.1,1.4,4.7h-3.9c-0.3-0.5-0.7-1.8-1.2-3.9c-0.5-2.1-1.2-2.7-2.7-2.7h-1.1v6.6h-3.8         V590.1z M61.7,597.3h1.5c1.9,0,3-0.9,3-2.4c0-1.5-1-2.3-2.8-2.3c-0.9,0-1.5,0.1-1.7,0.1V597.3z"
   id="path851" />
							<path
   d="M72.7,590.1c1.2-0.2,3-0.3,5.1-0.3c2.5,0,4.2,0.4,5.4,1.3c1,0.8,1.5,2,1.5,3.5c0,2.1-1.5,3.6-3,4.1v0.1         c1.2,0.5,1.8,1.6,2.2,3.1c0.5,1.9,1,4.1,1.4,4.7h-3.9c-0.3-0.5-0.7-1.8-1.2-3.9c-0.5-2.1-1.2-2.7-2.7-2.7h-1.1v6.6h-3.8         V590.1z M76.5,597.3H78c1.9,0,3-0.9,3-2.4c0-1.5-1-2.3-2.8-2.3c-0.9,0-1.5,0.1-1.7,0.1V597.3z"
   id="path853" />
							<path
   d="M48.5,666.7l-4-16.8h4.1l1.3,6.9c0.4,2,0.7,4.2,1,5.9h0.1c0.3-1.8,0.7-3.8,1.1-5.9l1.4-6.9h4l1.3,7.1         c0.4,2,0.6,3.8,0.9,5.6h0c0.2-1.9,0.6-3.8,1-5.8l1.4-6.9H66l-4.3,16.8h-4.1l-1.4-7.2c-0.3-1.7-0.6-3.3-0.8-5.2h0         c-0.3,1.9-0.6,3.5-1,5.2l-1.6,7.2H48.5z"
   id="path855" />
						</g>
					</g>
				</g>
			</g>
		</g>
		<g
   id="g951">
			<g
   id="g923">
				<g
   id="g869">
					
						<rect
   x="293.9"
   y="137.9"
   transform="matrix(0.7071 -0.7071 0.7071 0.7071 -44.4509 327.8187)"
   class="st4"
   width="159.2"
   height="159.2"
   id="rect867" />
				</g>
				<g
   id="g881">
					<defs
   id="defs872">
						<rect
   id="SVGID_00000008842467830618037370000008599518321374635408_"
   x="132.4"
   y="91.6"
   width="480"
   height="476.5" />
					</defs>
					<clipPath
   id="SVGID_00000057147530462942974460000010007246700100245144_">
						<use
   xlink:href="#SVGID_00000008842467830618037370000008599518321374635408_"
   style="overflow:visible;"
   id="use874" />
					</clipPath>
					<g
   style="clip-path:url(#SVGID_00000057147530462942974460000010007246700100245144_);"
   clip-path="url(#SVGID_00000057147530462942974460000010007246700100245144_)"
   id="g879">
						<path
   class="st19"
   d="M373.5,335.5l-118-118l118-118l118,118L373.5,335.5z M266.2,217.6l107.3,107.3l107.3-107.3L373.5,110.3        L266.2,217.6z"
   id="path877" />
					</g>
				</g>
				<g
   id="g885">
					
						<rect
   x="406.5"
   y="250.5"
   transform="matrix(0.7071 -0.7071 0.7071 0.7071 -91.094 440.424)"
   class="st6"
   width="159.2"
   height="159.2"
   id="rect883" />
				</g>
				<g
   id="g897">
					<defs
   id="defs888">
						<rect
   id="SVGID_00000179607145473903529810000013091984332890745502_"
   x="132.4"
   y="91.6"
   width="480"
   height="476.5" />
					</defs>
					<clipPath
   id="SVGID_00000088840900149426178860000015118778273418972563_">
						<use
   xlink:href="#SVGID_00000179607145473903529810000013091984332890745502_"
   style="overflow:visible;"
   id="use890" />
					</clipPath>
					<g
   style="clip-path:url(#SVGID_00000088840900149426178860000015118778273418972563_);"
   clip-path="url(#SVGID_00000088840900149426178860000015118778273418972563_)"
   id="g895">
						<path
   class="st19"
   d="M486.1,448.1l-118-118l118-118l118,118L486.1,448.1z M378.8,330.2l107.3,107.3l107.3-107.3L486.1,222.9        L378.8,330.2z"
   id="path893" />
					</g>
				</g>
				<g
   id="g901">
					
						<rect
   x="180.7"
   y="251.3"
   transform="matrix(0.7071 -0.7071 0.7071 0.7071 -157.7308 280.9993)"
   class="st8"
   width="159.2"
   height="159.2"
   id="rect899" />
				</g>
				<g
   id="g905">
					<path
   class="st19"
   d="M260.3,448.9l-118-118l118-118l118,118L260.3,448.9z M153.1,330.9l107.3,107.3l107.3-107.3L260.3,223.6       L153.1,330.9z"
   id="path903" />
				</g>
				<g
   id="g909">
					
						<rect
   x="293"
   y="363.5"
   transform="matrix(0.7071 -0.7071 0.7071 0.7071 -204.2279 393.2532)"
   class="st10"
   width="159.2"
   height="159.2"
   id="rect907" />
				</g>
				<g
   id="g921">
					<defs
   id="defs912">
						<rect
   id="SVGID_00000007422837548470256490000008061668285239485569_"
   x="132.4"
   y="91.6"
   width="480"
   height="476.5" />
					</defs>
					<clipPath
   id="SVGID_00000017501047973730273970000001125208051604579516_">
						<use
   xlink:href="#SVGID_00000007422837548470256490000008061668285239485569_"
   style="overflow:visible;"
   id="use914" />
					</clipPath>
					<g
   style="clip-path:url(#SVGID_00000017501047973730273970000001125208051604579516_);"
   clip-path="url(#SVGID_00000017501047973730273970000001125208051604579516_)"
   id="g919">
						<path
   class="st19"
   d="M372.6,561.1l-118-118l118-118l118,118L372.6,561.1z M265.3,443.2l107.3,107.3l107.3-107.3L372.6,335.9        L265.3,443.2z"
   id="path917" />
					</g>
				</g>
			</g>
			<g
   id="g949">
				<g
   id="g929">
					<g
   id="g927">
						<path
   d="M196.2,255.9c0.4,5.1-1.2,6.2-4.4,5.5c-6.7-1.5-13.3-2.9-20-4.3c-1.7-0.4-3.4-0.9-3.8-2.8c-0.4-2,1.1-3,2.6-3.8        c3.7-2,2.4-3.8,0.1-6c-6.1-5.9-12-12-18-17.9c-3.3-3.2-2.3-5.6,0.6-8.4c2.6-2.5,4.6-4.5,8.1-0.7c5.7,6.3,12,12,17.9,18.1        c2.5,2.5,4.5,4.3,6.4-0.4c0.6-1.4,1.7-2.5,3.5-2.2c1.6,0.2,2.2,1.5,2.5,2.8C193.4,242.9,195,250.2,196.2,255.9z"
   id="path925" />
					</g>
				</g>
				<g
   id="g935">
					<g
   id="g933">
						<path
   d="M312.6,509.6c0.4-5.1-1.2-6.2-4.4-5.5c-6.7,1.5-13.3,2.9-20,4.3c-1.7,0.4-3.4,0.9-3.8,2.8c-0.4,2,1.1,3,2.6,3.8        c3.7,2,2.4,3.8,0.1,6c-6.1,5.9-12,12-18,17.9c-3.3,3.2-2.3,5.6,0.6,8.4c2.6,2.5,4.6,4.5,8.1,0.7c5.7-6.3,12-12,17.9-18.1        c2.5-2.5,4.5-4.3,6.4,0.4c0.6,1.4,1.7,2.5,3.5,2.2c1.6-0.2,2.2-1.5,2.5-2.8C309.8,522.5,311.4,515.2,312.6,509.6z"
   id="path931" />
					</g>
				</g>
				<g
   id="g941">
					<g
   id="g939">
						<path
   d="M436.1,150.1c-0.4,5.1,1.2,6.2,4.4,5.5c6.7-1.5,13.3-2.9,20-4.3c1.7-0.4,3.4-0.9,3.8-2.8c0.4-2-1.1-3-2.6-3.8        c-3.7-2-2.4-3.8-0.1-6c6.1-5.9,12-12,18-17.9c3.3-3.2,2.3-5.6-0.6-8.4c-2.6-2.5-4.6-4.5-8.1-0.7c-5.7,6.3-12,12-17.9,18.1        c-2.5,2.5-4.5,4.3-6.4-0.4c-0.6-1.4-1.7-2.5-3.5-2.2c-1.6,0.2-2.2,1.5-2.5,2.8C438.9,137.1,437.3,144.4,436.1,150.1z"
   id="path937" />
					</g>
				</g>
				<g
   id="g947">
					<g
   id="g945">
						<path
   d="M548.7,394.4c-0.4-5.1,1.2-6.2,4.4-5.5c6.7,1.5,13.3,2.9,20,4.3c1.7,0.4,3.4,0.9,3.8,2.8c0.4,2-1.1,3-2.6,3.8        c-3.7,2-2.4,3.8-0.1,6c6.1,5.9,12,12,18,17.9c3.3,3.2,2.3,5.6-0.6,8.4c-2.6,2.5-4.6,4.5-8.1,0.7c-5.7-6.3-12-12-17.9-18.1        c-2.5-2.5-4.5-4.3-6.4,0.4c-0.6,1.4-1.7,2.5-3.5,2.2c-1.6-0.2-2.2-1.5-2.5-2.8C551.5,407.4,549.9,400.1,548.7,394.4z"
   id="path943" />
					</g>
				</g>
			</g>
		</g>
	</g>
</g>
</svg>
