<svg xmlns="http://www.w3.org/2000/svg" viewBox="-26 -28 52 52"><defs><clipPath id="b"><circle cy="-15" r="9.5"/><circle cy="-15" r="9.5" transform="rotate(120)"/><circle cy="-15" r="9.5" transform="rotate(240)"/></clipPath><mask id="a" width="60" height="60" x="-30" y="-30" maskUnits="userSpaceOnUse"><path fill="#fff" d="M-27-27h54v54h-54z"/><path d="M2-23v-4h-4v4M-.5-6v4h1v-4"/><circle cy="-15" r="10.5"/><g transform="rotate(120)"><path d="M2-23v-4h-4v4M-.5-6v4h1v-4"/><circle cy="-15" r="10.5"/></g><g transform="rotate(240)"><path d="M2-23v-4h-4v4M-.5-6v4h1v-4"/><circle cy="-15" r="10.5"/></g><circle r="3"/></mask></defs><g mask="url(#a)"><circle cy="-11" r="15"/><circle cy="-11" r="15" transform="rotate(120)"/><circle cy="-11" r="15" transform="rotate(240)"/></g><circle r="11.75" fill="none" stroke="#000" stroke-width="3.5" clip-path="url(#b)"/></svg>